<mxfile host="app.diagrams.net" agent="Mozilla/5.0 (X11; Ubuntu; Linux x86_64; rv:131.0) Gecko/20100101 Firefox/131.0" version="24.8.0" pages="8">
  <diagram name="第 1 页" id="_1_5rNjSqZu_5mU9mCM2">
    <mxGraphModel grid="1" page="1" gridSize="10" guides="1" tooltips="1" connect="1" arrows="1" fold="1" pageScale="1" pageWidth="827" pageHeight="1169" math="0" shadow="0">
      <root>
        <mxCell id="0" />
        <mxCell id="1" parent="0" />
        <mxCell id="4OkGHbeQtj2HpZDMA-2N-3" value="&lt;font style=&quot;font-size: 20px;&quot;&gt;应用容器云&lt;br&gt;&lt;/font&gt;" style="ellipse;shape=cloud;whiteSpace=wrap;html=1;labelBackgroundColor=none;fillColor=#FAE5C7;strokeColor=#0F8B8D;fontColor=#143642;" parent="1" vertex="1">
          <mxGeometry x="498" y="130" width="278" height="130" as="geometry" />
        </mxCell>
        <mxCell id="4OkGHbeQtj2HpZDMA-2N-4" value="指标采集" style="rounded=1;whiteSpace=wrap;html=1;labelBackgroundColor=none;fillColor=#FAE5C7;strokeColor=#0F8B8D;fontColor=#143642;" parent="1" vertex="1">
          <mxGeometry x="318" y="260" width="118" height="60" as="geometry" />
        </mxCell>
        <mxCell id="4OkGHbeQtj2HpZDMA-2N-5" value="" style="shape=flexArrow;endArrow=classic;html=1;rounded=0;labelBackgroundColor=none;strokeColor=#A8201A;fontColor=default;" parent="1" edge="1">
          <mxGeometry width="50" height="50" relative="1" as="geometry">
            <mxPoint x="458" y="280" as="sourcePoint" />
            <mxPoint x="508" y="230" as="targetPoint" />
          </mxGeometry>
        </mxCell>
        <mxCell id="4OkGHbeQtj2HpZDMA-2N-6" value="&lt;div&gt;加权打分&lt;/div&gt;(传统阈值)" style="rounded=1;whiteSpace=wrap;html=1;labelBackgroundColor=none;fillColor=#FAE5C7;strokeColor=#0F8B8D;fontColor=#143642;" parent="1" vertex="1">
          <mxGeometry x="148" y="450" width="118" height="60" as="geometry" />
        </mxCell>
        <mxCell id="4OkGHbeQtj2HpZDMA-2N-7" value="&lt;div&gt;异常检测&lt;/div&gt;&lt;div&gt;（指标波动）&lt;/div&gt;" style="rounded=1;whiteSpace=wrap;html=1;labelBackgroundColor=none;fillColor=#FAE5C7;strokeColor=#0F8B8D;fontColor=#143642;" parent="1" vertex="1">
          <mxGeometry x="318" y="450" width="118" height="60" as="geometry" />
        </mxCell>
        <mxCell id="4OkGHbeQtj2HpZDMA-2N-8" value="&lt;div&gt;健康状态模型&lt;/div&gt;（监督学习）" style="rounded=1;whiteSpace=wrap;html=1;labelBackgroundColor=none;fillColor=#FAE5C7;strokeColor=#0F8B8D;fontColor=#143642;" parent="1" vertex="1">
          <mxGeometry x="488" y="450" width="118" height="60" as="geometry" />
        </mxCell>
        <mxCell id="4OkGHbeQtj2HpZDMA-2N-28" style="edgeStyle=orthogonalEdgeStyle;rounded=0;orthogonalLoop=1;jettySize=auto;html=1;labelBackgroundColor=none;strokeColor=#A8201A;fontColor=default;" parent="1" source="4OkGHbeQtj2HpZDMA-2N-9" target="4OkGHbeQtj2HpZDMA-2N-23" edge="1">
          <mxGeometry relative="1" as="geometry" />
        </mxCell>
        <mxCell id="4OkGHbeQtj2HpZDMA-2N-29" style="edgeStyle=orthogonalEdgeStyle;rounded=0;orthogonalLoop=1;jettySize=auto;html=1;labelBackgroundColor=none;strokeColor=#A8201A;fontColor=default;" parent="1" source="4OkGHbeQtj2HpZDMA-2N-9" target="4OkGHbeQtj2HpZDMA-2N-22" edge="1">
          <mxGeometry relative="1" as="geometry" />
        </mxCell>
        <mxCell id="4OkGHbeQtj2HpZDMA-2N-9" value="告警推送" style="rounded=1;whiteSpace=wrap;html=1;labelBackgroundColor=none;fillColor=#FAE5C7;strokeColor=#0F8B8D;fontColor=#143642;" parent="1" vertex="1">
          <mxGeometry x="318" y="900" width="118" height="60" as="geometry" />
        </mxCell>
        <mxCell id="4OkGHbeQtj2HpZDMA-2N-18" value="" style="edgeStyle=orthogonalEdgeStyle;rounded=0;orthogonalLoop=1;jettySize=auto;html=1;labelBackgroundColor=none;strokeColor=#A8201A;fontColor=default;" parent="1" source="4OkGHbeQtj2HpZDMA-2N-10" target="4OkGHbeQtj2HpZDMA-2N-9" edge="1">
          <mxGeometry relative="1" as="geometry" />
        </mxCell>
        <mxCell id="4OkGHbeQtj2HpZDMA-2N-31" style="edgeStyle=orthogonalEdgeStyle;rounded=0;orthogonalLoop=1;jettySize=auto;html=1;entryX=1;entryY=0.5;entryDx=0;entryDy=0;labelBackgroundColor=none;strokeColor=#A8201A;fontColor=default;" parent="1" source="4OkGHbeQtj2HpZDMA-2N-10" target="4OkGHbeQtj2HpZDMA-2N-30" edge="1">
          <mxGeometry relative="1" as="geometry" />
        </mxCell>
        <mxCell id="4OkGHbeQtj2HpZDMA-2N-32" style="edgeStyle=orthogonalEdgeStyle;rounded=0;orthogonalLoop=1;jettySize=auto;html=1;labelBackgroundColor=none;strokeColor=#A8201A;fontColor=default;" parent="1" source="4OkGHbeQtj2HpZDMA-2N-10" target="4OkGHbeQtj2HpZDMA-2N-16" edge="1">
          <mxGeometry relative="1" as="geometry" />
        </mxCell>
        <mxCell id="4OkGHbeQtj2HpZDMA-2N-33" style="edgeStyle=orthogonalEdgeStyle;rounded=0;orthogonalLoop=1;jettySize=auto;html=1;labelBackgroundColor=none;strokeColor=#A8201A;fontColor=default;" parent="1" source="4OkGHbeQtj2HpZDMA-2N-10" target="4OkGHbeQtj2HpZDMA-2N-26" edge="1">
          <mxGeometry relative="1" as="geometry" />
        </mxCell>
        <mxCell id="4OkGHbeQtj2HpZDMA-2N-34" style="edgeStyle=orthogonalEdgeStyle;rounded=0;orthogonalLoop=1;jettySize=auto;html=1;entryX=0;entryY=0.5;entryDx=0;entryDy=0;labelBackgroundColor=none;strokeColor=#A8201A;fontColor=default;" parent="1" source="4OkGHbeQtj2HpZDMA-2N-10" target="4OkGHbeQtj2HpZDMA-2N-13" edge="1">
          <mxGeometry relative="1" as="geometry" />
        </mxCell>
        <mxCell id="4OkGHbeQtj2HpZDMA-2N-10" value="数据存储" style="rounded=1;whiteSpace=wrap;html=1;labelBackgroundColor=none;fillColor=#FAE5C7;strokeColor=#0F8B8D;fontColor=#143642;" parent="1" vertex="1">
          <mxGeometry x="318" y="710" width="118" height="60" as="geometry" />
        </mxCell>
        <mxCell id="4OkGHbeQtj2HpZDMA-2N-12" value="智能决策模型" style="swimlane;whiteSpace=wrap;html=1;labelBackgroundColor=none;fillColor=#FAE5C7;strokeColor=#0F8B8D;fontColor=#143642;" parent="1" vertex="1">
          <mxGeometry x="98" y="370" width="558" height="200" as="geometry" />
        </mxCell>
        <mxCell id="4OkGHbeQtj2HpZDMA-2N-13" value="模型训练" style="rounded=1;whiteSpace=wrap;html=1;labelBackgroundColor=none;fillColor=#FAE5C7;strokeColor=#0F8B8D;fontColor=#143642;" parent="1" vertex="1">
          <mxGeometry x="600" y="640" width="118" height="60" as="geometry" />
        </mxCell>
        <mxCell id="4OkGHbeQtj2HpZDMA-2N-14" value="" style="endArrow=classic;html=1;rounded=0;labelBackgroundColor=none;strokeColor=#A8201A;fontColor=default;" parent="1" source="4OkGHbeQtj2HpZDMA-2N-13" target="4OkGHbeQtj2HpZDMA-2N-8" edge="1">
          <mxGeometry width="50" height="50" relative="1" as="geometry">
            <mxPoint x="678" y="610" as="sourcePoint" />
            <mxPoint x="728" y="560" as="targetPoint" />
          </mxGeometry>
        </mxCell>
        <mxCell id="4OkGHbeQtj2HpZDMA-2N-16" value="服务巡检" style="rounded=1;whiteSpace=wrap;html=1;labelBackgroundColor=none;fillColor=#FAE5C7;strokeColor=#0F8B8D;fontColor=#143642;" parent="1" vertex="1">
          <mxGeometry x="40" y="760" width="118" height="60" as="geometry" />
        </mxCell>
        <mxCell id="4OkGHbeQtj2HpZDMA-2N-19" value="" style="shape=flexArrow;endArrow=classic;html=1;rounded=0;labelBackgroundColor=none;strokeColor=#A8201A;fontColor=default;" parent="1" edge="1">
          <mxGeometry width="50" height="50" relative="1" as="geometry">
            <mxPoint x="377.5" y="600" as="sourcePoint" />
            <mxPoint x="377.5" y="670" as="targetPoint" />
          </mxGeometry>
        </mxCell>
        <mxCell id="4OkGHbeQtj2HpZDMA-2N-20" value="" style="endArrow=none;dashed=1;html=1;rounded=0;labelBackgroundColor=none;strokeColor=#A8201A;fontColor=default;" parent="1" edge="1">
          <mxGeometry width="50" height="50" relative="1" as="geometry">
            <mxPoint x="-860" y="620" as="sourcePoint" />
            <mxPoint x="790" y="620" as="targetPoint" />
          </mxGeometry>
        </mxCell>
        <mxCell id="4OkGHbeQtj2HpZDMA-2N-21" value="" style="endArrow=none;dashed=1;html=1;rounded=0;labelBackgroundColor=none;strokeColor=#A8201A;fontColor=default;" parent="1" edge="1">
          <mxGeometry width="50" height="50" relative="1" as="geometry">
            <mxPoint x="-860" y="840" as="sourcePoint" />
            <mxPoint x="790" y="840" as="targetPoint" />
          </mxGeometry>
        </mxCell>
        <mxCell id="4OkGHbeQtj2HpZDMA-2N-22" value="一键上下线" style="rounded=1;whiteSpace=wrap;html=1;labelBackgroundColor=none;fillColor=#FAE5C7;strokeColor=#0F8B8D;fontColor=#143642;" parent="1" vertex="1">
          <mxGeometry x="536" y="900" width="120" height="60" as="geometry" />
        </mxCell>
        <mxCell id="4OkGHbeQtj2HpZDMA-2N-23" value="&lt;div&gt;一键扩容&lt;/div&gt;&lt;div&gt;（待开发）&lt;/div&gt;" style="rounded=1;whiteSpace=wrap;html=1;labelBackgroundColor=none;fillColor=#FAE5C7;strokeColor=#0F8B8D;fontColor=#143642;" parent="1" vertex="1">
          <mxGeometry x="98" y="900" width="120" height="60" as="geometry" />
        </mxCell>
        <mxCell id="4OkGHbeQtj2HpZDMA-2N-25" value="&lt;font style=&quot;font-size: 20px;&quot;&gt;应急方案&lt;/font&gt;" style="text;html=1;align=center;verticalAlign=middle;whiteSpace=wrap;rounded=0;labelBackgroundColor=none;fontColor=#143642;" parent="1" vertex="1">
          <mxGeometry x="-810" y="880" width="100" height="30" as="geometry" />
        </mxCell>
        <mxCell id="4OkGHbeQtj2HpZDMA-2N-26" value="资源调整决策" style="rounded=1;whiteSpace=wrap;html=1;labelBackgroundColor=none;fillColor=#FAE5C7;strokeColor=#0F8B8D;fontColor=#143642;" parent="1" vertex="1">
          <mxGeometry x="599" y="760" width="120" height="60" as="geometry" />
        </mxCell>
        <mxCell id="4OkGHbeQtj2HpZDMA-2N-30" value="阈值调整" style="rounded=1;whiteSpace=wrap;html=1;labelBackgroundColor=none;fillColor=#FAE5C7;strokeColor=#0F8B8D;fontColor=#143642;" parent="1" vertex="1">
          <mxGeometry x="40" y="650" width="118" height="60" as="geometry" />
        </mxCell>
        <mxCell id="4OkGHbeQtj2HpZDMA-2N-35" value="&lt;font style=&quot;font-size: 20px;&quot;&gt;应急准备&lt;br&gt;&lt;/font&gt;" style="text;html=1;align=center;verticalAlign=middle;whiteSpace=wrap;rounded=0;labelBackgroundColor=none;fontColor=#143642;" parent="1" vertex="1">
          <mxGeometry x="-810" y="710" width="100" height="30" as="geometry" />
        </mxCell>
        <mxCell id="4OkGHbeQtj2HpZDMA-2N-36" value="" style="endArrow=none;dashed=1;html=1;dashPattern=1 3;strokeWidth=2;rounded=0;labelBackgroundColor=none;strokeColor=#A8201A;fontColor=default;" parent="1" edge="1">
          <mxGeometry width="50" height="50" relative="1" as="geometry">
            <mxPoint y="1170" as="sourcePoint" />
            <mxPoint y="120" as="targetPoint" />
          </mxGeometry>
        </mxCell>
        <mxCell id="4OkGHbeQtj2HpZDMA-2N-37" value="" style="endArrow=none;dashed=1;html=1;rounded=0;labelBackgroundColor=none;strokeColor=#A8201A;fontColor=default;" parent="1" edge="1">
          <mxGeometry width="50" height="50" relative="1" as="geometry">
            <mxPoint x="-860" y="1000" as="sourcePoint" />
            <mxPoint x="790" y="1000" as="targetPoint" />
          </mxGeometry>
        </mxCell>
        <mxCell id="4OkGHbeQtj2HpZDMA-2N-38" value="&lt;font style=&quot;font-size: 20px;&quot;&gt;复盘分析&lt;br&gt;&lt;/font&gt;" style="text;html=1;align=center;verticalAlign=middle;whiteSpace=wrap;rounded=0;labelBackgroundColor=none;fontColor=#143642;" parent="1" vertex="1">
          <mxGeometry x="-810" y="1060" width="100" height="30" as="geometry" />
        </mxCell>
        <mxCell id="4OkGHbeQtj2HpZDMA-2N-40" value="性能指标" style="rounded=1;whiteSpace=wrap;html=1;labelBackgroundColor=none;fillColor=#FAE5C7;strokeColor=#0F8B8D;fontColor=#143642;" parent="1" vertex="1">
          <mxGeometry x="190" y="1055" width="120" height="60" as="geometry" />
        </mxCell>
        <mxCell id="4OkGHbeQtj2HpZDMA-2N-41" value="流量指标" style="rounded=1;whiteSpace=wrap;html=1;labelBackgroundColor=none;fillColor=#FAE5C7;strokeColor=#0F8B8D;fontColor=#143642;" parent="1" vertex="1">
          <mxGeometry x="520" y="1055" width="120" height="60" as="geometry" />
        </mxCell>
        <mxCell id="4OkGHbeQtj2HpZDMA-2N-42" value="&lt;font style=&quot;font-size: 20px;&quot;&gt;运维监控平台&lt;/font&gt;" style="text;html=1;align=center;verticalAlign=middle;whiteSpace=wrap;rounded=0;labelBackgroundColor=none;fontColor=#143642;" parent="1" vertex="1">
          <mxGeometry x="38" y="170" width="132" height="30" as="geometry" />
        </mxCell>
        <mxCell id="4OkGHbeQtj2HpZDMA-2N-43" value="&lt;font style=&quot;font-size: 20px;&quot;&gt;微服务管理平台&lt;br&gt;&lt;/font&gt;" style="text;html=1;align=center;verticalAlign=middle;whiteSpace=wrap;rounded=0;labelBackgroundColor=none;fontColor=#143642;" parent="1" vertex="1">
          <mxGeometry x="-190" y="170" width="152" height="30" as="geometry" />
        </mxCell>
        <mxCell id="4OkGHbeQtj2HpZDMA-2N-44" value="生产A" style="ellipse;shape=cloud;whiteSpace=wrap;html=1;labelBackgroundColor=none;fillColor=#FAE5C7;strokeColor=#0F8B8D;fontColor=#143642;" parent="1" vertex="1">
          <mxGeometry x="-650" y="470" width="120" height="80" as="geometry" />
        </mxCell>
        <mxCell id="4OkGHbeQtj2HpZDMA-2N-45" value="生产B" style="ellipse;shape=cloud;whiteSpace=wrap;html=1;labelBackgroundColor=none;fillColor=#FAE5C7;strokeColor=#0F8B8D;fontColor=#143642;" parent="1" vertex="1">
          <mxGeometry x="-449" y="470" width="120" height="80" as="geometry" />
        </mxCell>
        <mxCell id="4OkGHbeQtj2HpZDMA-2N-46" value="生产D" style="ellipse;shape=cloud;whiteSpace=wrap;html=1;labelBackgroundColor=none;fillColor=#FAE5C7;strokeColor=#0F8B8D;fontColor=#143642;" parent="1" vertex="1">
          <mxGeometry x="-240" y="470" width="120" height="80" as="geometry" />
        </mxCell>
        <mxCell id="4OkGHbeQtj2HpZDMA-2N-50" style="edgeStyle=orthogonalEdgeStyle;rounded=0;orthogonalLoop=1;jettySize=auto;html=1;labelBackgroundColor=none;strokeColor=#A8201A;fontColor=default;" parent="1" source="4OkGHbeQtj2HpZDMA-2N-47" target="4OkGHbeQtj2HpZDMA-2N-44" edge="1">
          <mxGeometry relative="1" as="geometry" />
        </mxCell>
        <mxCell id="4OkGHbeQtj2HpZDMA-2N-51" value="" style="edgeStyle=orthogonalEdgeStyle;rounded=0;orthogonalLoop=1;jettySize=auto;html=1;labelBackgroundColor=none;strokeColor=#A8201A;fontColor=default;" parent="1" source="4OkGHbeQtj2HpZDMA-2N-47" target="4OkGHbeQtj2HpZDMA-2N-45" edge="1">
          <mxGeometry relative="1" as="geometry" />
        </mxCell>
        <mxCell id="4OkGHbeQtj2HpZDMA-2N-52" style="edgeStyle=orthogonalEdgeStyle;rounded=0;orthogonalLoop=1;jettySize=auto;html=1;labelBackgroundColor=none;strokeColor=#A8201A;fontColor=default;" parent="1" source="4OkGHbeQtj2HpZDMA-2N-47" target="4OkGHbeQtj2HpZDMA-2N-46" edge="1">
          <mxGeometry relative="1" as="geometry" />
        </mxCell>
        <mxCell id="4OkGHbeQtj2HpZDMA-2N-47" value="&lt;font style=&quot;font-size: 20px;&quot;&gt;承保流量切换&lt;br&gt;&lt;/font&gt;" style="rounded=1;whiteSpace=wrap;html=1;labelBackgroundColor=none;fillColor=#FAE5C7;strokeColor=#0F8B8D;fontColor=#143642;" parent="1" vertex="1">
          <mxGeometry x="-449" y="350" width="120" height="60" as="geometry" />
        </mxCell>
        <mxCell id="4OkGHbeQtj2HpZDMA-2N-49" value="" style="edgeStyle=orthogonalEdgeStyle;rounded=0;orthogonalLoop=1;jettySize=auto;html=1;labelBackgroundColor=none;strokeColor=#A8201A;fontColor=default;" parent="1" source="4OkGHbeQtj2HpZDMA-2N-48" target="4OkGHbeQtj2HpZDMA-2N-47" edge="1">
          <mxGeometry relative="1" as="geometry" />
        </mxCell>
        <mxCell id="4OkGHbeQtj2HpZDMA-2N-48" value="&lt;font style=&quot;font-size: 20px;&quot;&gt;统一工作台&lt;font style=&quot;font-size: 20px;&quot;&gt;入口&lt;br&gt;&lt;/font&gt;&lt;/font&gt;" style="rounded=1;whiteSpace=wrap;html=1;labelBackgroundColor=none;fillColor=#FAE5C7;strokeColor=#0F8B8D;fontColor=#143642;" parent="1" vertex="1">
          <mxGeometry x="-450" y="190" width="120" height="60" as="geometry" />
        </mxCell>
        <mxCell id="4OkGHbeQtj2HpZDMA-2N-53" value="" style="endArrow=classic;startArrow=classic;html=1;rounded=0;labelBackgroundColor=none;strokeColor=#A8201A;fontColor=default;" parent="1" edge="1">
          <mxGeometry width="50" height="50" relative="1" as="geometry">
            <mxPoint x="-460" y="780" as="sourcePoint" />
            <mxPoint x="-270" y="780" as="targetPoint" />
            <Array as="points" />
          </mxGeometry>
        </mxCell>
        <mxCell id="4OkGHbeQtj2HpZDMA-2N-54" value="Text" style="edgeLabel;html=1;align=center;verticalAlign=middle;resizable=0;points=[];labelBackgroundColor=none;fontColor=#143642;" parent="4OkGHbeQtj2HpZDMA-2N-53" vertex="1" connectable="0">
          <mxGeometry x="-0.1474" y="-2" relative="1" as="geometry">
            <mxPoint x="11" y="1" as="offset" />
          </mxGeometry>
        </mxCell>
        <mxCell id="4OkGHbeQtj2HpZDMA-2N-55" value="&lt;font style=&quot;font-size: 20px;&quot;&gt;周一拉齐AD&lt;/font&gt;" style="edgeLabel;html=1;align=center;verticalAlign=middle;resizable=0;points=[];labelBackgroundColor=none;fontColor=#143642;" parent="4OkGHbeQtj2HpZDMA-2N-53" vertex="1" connectable="0">
          <mxGeometry x="0.0105" y="-4" relative="1" as="geometry">
            <mxPoint x="-6" y="-3" as="offset" />
          </mxGeometry>
        </mxCell>
        <mxCell id="4OkGHbeQtj2HpZDMA-2N-59" value="" style="endArrow=classic;html=1;rounded=0;labelBackgroundColor=none;strokeColor=#A8201A;fontColor=default;" parent="1" edge="1">
          <mxGeometry width="50" height="50" relative="1" as="geometry">
            <mxPoint x="-389.5" y="680" as="sourcePoint" />
            <mxPoint x="-389.5" y="570" as="targetPoint" />
          </mxGeometry>
        </mxCell>
        <mxCell id="4OkGHbeQtj2HpZDMA-2N-60" value="&lt;font style=&quot;font-size: 20px;&quot;&gt;周五升级&lt;br&gt;&lt;/font&gt;" style="edgeLabel;html=1;align=center;verticalAlign=middle;resizable=0;points=[];labelBackgroundColor=none;fontColor=#143642;" parent="4OkGHbeQtj2HpZDMA-2N-59" vertex="1" connectable="0">
          <mxGeometry x="-0.1818" relative="1" as="geometry">
            <mxPoint x="1" as="offset" />
          </mxGeometry>
        </mxCell>
        <mxCell id="4OkGHbeQtj2HpZDMA-2N-61" value="&lt;font style=&quot;font-size: 20px;&quot;&gt;版本管理&lt;br&gt;&lt;/font&gt;" style="rounded=1;whiteSpace=wrap;html=1;labelBackgroundColor=none;fillColor=#FAE5C7;strokeColor=#0F8B8D;fontColor=#143642;" parent="1" vertex="1">
          <mxGeometry x="-449" y="690" width="120" height="60" as="geometry" />
        </mxCell>
        <mxCell id="4OkGHbeQtj2HpZDMA-2N-62" value="&lt;font style=&quot;font-size: 20px;&quot;&gt;流量切换&lt;br&gt;&lt;/font&gt;" style="rounded=1;whiteSpace=wrap;html=1;labelBackgroundColor=none;fillColor=#FAE5C7;strokeColor=#0F8B8D;fontColor=#143642;" parent="1" vertex="1">
          <mxGeometry x="-449" y="890" width="120" height="60" as="geometry" />
        </mxCell>
        <mxCell id="4OkGHbeQtj2HpZDMA-2N-64" style="edgeStyle=orthogonalEdgeStyle;rounded=0;orthogonalLoop=1;jettySize=auto;html=1;labelBackgroundColor=none;strokeColor=#A8201A;fontColor=default;" parent="1" source="4OkGHbeQtj2HpZDMA-2N-63" target="4OkGHbeQtj2HpZDMA-2N-47" edge="1">
          <mxGeometry relative="1" as="geometry">
            <Array as="points">
              <mxPoint x="-640" y="310" />
              <mxPoint x="-389" y="310" />
            </Array>
          </mxGeometry>
        </mxCell>
        <mxCell id="4OkGHbeQtj2HpZDMA-2N-63" value="&lt;font style=&quot;font-size: 20px;&quot;&gt;统一工作台&lt;font style=&quot;font-size: 20px;&quot;&gt;入口（2）&lt;/font&gt;&lt;/font&gt;" style="rounded=1;whiteSpace=wrap;html=1;dashed=1;labelBackgroundColor=none;fillColor=#FAE5C7;strokeColor=#0F8B8D;fontColor=#143642;" parent="1" vertex="1">
          <mxGeometry x="-700" y="190" width="120" height="60" as="geometry" />
        </mxCell>
      </root>
    </mxGraphModel>
  </diagram>
  <diagram name="第 1 页 的副本" id="e_jr8eTVz9LUm7EkhgXM">
    <mxGraphModel dx="1368" dy="790" grid="1" gridSize="10" guides="1" tooltips="1" connect="1" arrows="1" fold="1" page="1" pageScale="1" pageWidth="827" pageHeight="1169" math="0" shadow="0">
      <root>
        <mxCell id="48-ZhOprCwcdDd7WIKVf-0" />
        <mxCell id="48-ZhOprCwcdDd7WIKVf-1" parent="48-ZhOprCwcdDd7WIKVf-0" />
        <mxCell id="48-ZhOprCwcdDd7WIKVf-3" value="&lt;font style=&quot;font-size: 20px;&quot;&gt;指标采集&lt;/font&gt;" style="rounded=1;whiteSpace=wrap;html=1;labelBackgroundColor=none;fillColor=#FAE5C7;strokeColor=#0F8B8D;fontColor=#143642;" vertex="1" parent="48-ZhOprCwcdDd7WIKVf-1">
          <mxGeometry x="534" y="890" width="118" height="60" as="geometry" />
        </mxCell>
        <mxCell id="48-ZhOprCwcdDd7WIKVf-5" value="&lt;div&gt;加权打分&lt;/div&gt;(传统阈值)" style="rounded=1;whiteSpace=wrap;html=1;labelBackgroundColor=none;fillColor=#FAE5C7;strokeColor=#0F8B8D;fontColor=#143642;" vertex="1" parent="48-ZhOprCwcdDd7WIKVf-1">
          <mxGeometry x="152" y="1120" width="118" height="60" as="geometry" />
        </mxCell>
        <mxCell id="48-ZhOprCwcdDd7WIKVf-6" value="&lt;div&gt;异常检测&lt;/div&gt;&lt;div&gt;（指标波动）&lt;/div&gt;" style="rounded=1;whiteSpace=wrap;html=1;labelBackgroundColor=none;fillColor=#FAE5C7;strokeColor=#0F8B8D;fontColor=#143642;" vertex="1" parent="48-ZhOprCwcdDd7WIKVf-1">
          <mxGeometry x="322" y="1120" width="118" height="60" as="geometry" />
        </mxCell>
        <mxCell id="48-ZhOprCwcdDd7WIKVf-7" value="&lt;div&gt;健康状态模型&lt;/div&gt;（监督学习）" style="rounded=1;whiteSpace=wrap;html=1;labelBackgroundColor=none;fillColor=#FAE5C7;strokeColor=#0F8B8D;fontColor=#143642;" vertex="1" parent="48-ZhOprCwcdDd7WIKVf-1">
          <mxGeometry x="492" y="1120" width="118" height="60" as="geometry" />
        </mxCell>
        <mxCell id="48-ZhOprCwcdDd7WIKVf-17" value="智能决策模型" style="swimlane;whiteSpace=wrap;html=1;labelBackgroundColor=none;fillColor=#FAE5C7;strokeColor=#0F8B8D;fontColor=#143642;" vertex="1" parent="48-ZhOprCwcdDd7WIKVf-1">
          <mxGeometry x="102" y="1040" width="558" height="200" as="geometry" />
        </mxCell>
        <mxCell id="48-ZhOprCwcdDd7WIKVf-35" value="&lt;font style=&quot;font-size: 20px;&quot;&gt;运维监控平台&lt;/font&gt;" style="text;html=1;align=center;verticalAlign=middle;whiteSpace=wrap;rounded=0;labelBackgroundColor=none;fontColor=#143642;" vertex="1" parent="48-ZhOprCwcdDd7WIKVf-1">
          <mxGeometry x="684" y="890" width="132" height="30" as="geometry" />
        </mxCell>
        <mxCell id="dKIf8LmojB_R0N3gFvjE-5" value="" style="shape=flexArrow;endArrow=classic;html=1;rounded=0;labelBackgroundColor=none;strokeColor=#A8201A;fontColor=default;" edge="1" parent="48-ZhOprCwcdDd7WIKVf-1">
          <mxGeometry width="50" height="50" relative="1" as="geometry">
            <mxPoint x="594" y="960" as="sourcePoint" />
            <mxPoint x="594" y="1030" as="targetPoint" />
          </mxGeometry>
        </mxCell>
        <mxCell id="dKIf8LmojB_R0N3gFvjE-6" value="&lt;font style=&quot;font-size: 20px;&quot;&gt;健康管理&lt;/font&gt;" style="rounded=1;whiteSpace=wrap;html=1;labelBackgroundColor=none;fillColor=#FAE5C7;strokeColor=#0F8B8D;fontColor=#143642;" vertex="1" parent="48-ZhOprCwcdDd7WIKVf-1">
          <mxGeometry x="102" y="890" width="118" height="60" as="geometry" />
        </mxCell>
        <mxCell id="dKIf8LmojB_R0N3gFvjE-7" value="" style="shape=flexArrow;endArrow=classic;html=1;rounded=0;labelBackgroundColor=none;strokeColor=#A8201A;fontColor=default;" edge="1" parent="48-ZhOprCwcdDd7WIKVf-1">
          <mxGeometry width="50" height="50" relative="1" as="geometry">
            <mxPoint x="158" y="1030" as="sourcePoint" />
            <mxPoint x="158" y="960" as="targetPoint" />
            <Array as="points">
              <mxPoint x="158" y="990" />
            </Array>
          </mxGeometry>
        </mxCell>
        <mxCell id="dKIf8LmojB_R0N3gFvjE-8" value="" style="endArrow=none;dashed=1;html=1;rounded=0;strokeWidth=2;" edge="1" parent="48-ZhOprCwcdDd7WIKVf-1">
          <mxGeometry width="50" height="50" relative="1" as="geometry">
            <mxPoint x="4" y="870" as="sourcePoint" />
            <mxPoint x="824" y="870" as="targetPoint" />
          </mxGeometry>
        </mxCell>
        <mxCell id="dKIf8LmojB_R0N3gFvjE-9" value="&lt;font style=&quot;font-size: 20px;&quot;&gt;应用容器云&lt;/font&gt;" style="text;html=1;align=center;verticalAlign=middle;whiteSpace=wrap;rounded=0;labelBackgroundColor=none;fontColor=#143642;" vertex="1" parent="48-ZhOprCwcdDd7WIKVf-1">
          <mxGeometry x="695" y="570" width="132" height="30" as="geometry" />
        </mxCell>
        <mxCell id="dKIf8LmojB_R0N3gFvjE-12" value="&lt;font style=&quot;font-size: 20px;&quot;&gt;注册中心&lt;br&gt;&lt;/font&gt;" style="text;html=1;align=center;verticalAlign=middle;whiteSpace=wrap;rounded=0;labelBackgroundColor=none;fontColor=#143642;" vertex="1" parent="48-ZhOprCwcdDd7WIKVf-1">
          <mxGeometry y="585" width="132" height="30" as="geometry" />
        </mxCell>
        <mxCell id="dKIf8LmojB_R0N3gFvjE-13" value="&lt;font style=&quot;font-size: 20px;&quot;&gt;eureka&lt;br&gt;&lt;/font&gt;" style="ellipse;shape=cloud;whiteSpace=wrap;html=1;fillColor=#fff2cc;strokeColor=#d6b656;" vertex="1" parent="48-ZhOprCwcdDd7WIKVf-1">
          <mxGeometry x="90" y="660" width="120" height="80" as="geometry" />
        </mxCell>
        <mxCell id="dKIf8LmojB_R0N3gFvjE-14" value="A" style="rounded=1;whiteSpace=wrap;html=1;fillColor=#fff2cc;strokeColor=#d6b656;" vertex="1" parent="48-ZhOprCwcdDd7WIKVf-1">
          <mxGeometry x="372" y="630" width="120" height="60" as="geometry" />
        </mxCell>
        <mxCell id="dKIf8LmojB_R0N3gFvjE-15" value="B" style="rounded=1;whiteSpace=wrap;html=1;fillColor=#fff2cc;strokeColor=#d6b656;" vertex="1" parent="48-ZhOprCwcdDd7WIKVf-1">
          <mxGeometry x="520" y="630" width="120" height="60" as="geometry" />
        </mxCell>
        <mxCell id="dKIf8LmojB_R0N3gFvjE-16" value="C" style="rounded=1;whiteSpace=wrap;html=1;fillColor=#fff2cc;strokeColor=#d6b656;" vertex="1" parent="48-ZhOprCwcdDd7WIKVf-1">
          <mxGeometry x="670" y="630" width="120" height="60" as="geometry" />
        </mxCell>
        <mxCell id="dKIf8LmojB_R0N3gFvjE-17" value="" style="endArrow=none;dashed=1;html=1;dashPattern=1 3;strokeWidth=2;rounded=0;" edge="1" parent="48-ZhOprCwcdDd7WIKVf-1">
          <mxGeometry width="50" height="50" relative="1" as="geometry">
            <mxPoint x="320" y="870" as="sourcePoint" />
            <mxPoint x="320" y="560" as="targetPoint" />
          </mxGeometry>
        </mxCell>
        <mxCell id="dKIf8LmojB_R0N3gFvjE-18" value="" style="shape=flexArrow;endArrow=classic;startArrow=classic;html=1;rounded=0;fillColor=#fff2cc;strokeColor=#d6b656;" edge="1" parent="48-ZhOprCwcdDd7WIKVf-1">
          <mxGeometry width="100" height="100" relative="1" as="geometry">
            <mxPoint x="152" y="860" as="sourcePoint" />
            <mxPoint x="152" y="740" as="targetPoint" />
          </mxGeometry>
        </mxCell>
        <mxCell id="dKIf8LmojB_R0N3gFvjE-19" value="&lt;font style=&quot;font-size: 20px;&quot;&gt;服务列表&lt;/font&gt;" style="text;html=1;align=center;verticalAlign=middle;whiteSpace=wrap;rounded=0;" vertex="1" parent="48-ZhOprCwcdDd7WIKVf-1">
          <mxGeometry x="181.25" y="755" width="109" height="30" as="geometry" />
        </mxCell>
        <mxCell id="dKIf8LmojB_R0N3gFvjE-20" value="&lt;font style=&quot;font-size: 20px;&quot;&gt;服务上下线&lt;/font&gt;" style="text;html=1;align=center;verticalAlign=middle;whiteSpace=wrap;rounded=0;" vertex="1" parent="48-ZhOprCwcdDd7WIKVf-1">
          <mxGeometry x="171.5" y="800" width="128.5" height="30" as="geometry" />
        </mxCell>
        <mxCell id="dKIf8LmojB_R0N3gFvjE-23" value="&lt;font style=&quot;font-size: 20px;&quot;&gt;Spring Actuator暴露自定义端点&lt;/font&gt;" style="shape=callout;whiteSpace=wrap;html=1;perimeter=calloutPerimeter;fillColor=#fff2cc;strokeColor=#d6b656;" vertex="1" parent="48-ZhOprCwcdDd7WIKVf-1">
          <mxGeometry x="414" y="520" width="216" height="95" as="geometry" />
        </mxCell>
        <mxCell id="dKIf8LmojB_R0N3gFvjE-24" value="POD&amp;nbsp; CPU" style="text;html=1;align=center;verticalAlign=middle;whiteSpace=wrap;rounded=0;fillColor=#dae8fc;strokeColor=#6c8ebf;" vertex="1" parent="48-ZhOprCwcdDd7WIKVf-1">
          <mxGeometry x="474" y="725" width="60" height="30" as="geometry" />
        </mxCell>
        <mxCell id="dKIf8LmojB_R0N3gFvjE-25" value="" style="shape=flexArrow;endArrow=classic;startArrow=classic;html=1;rounded=0;fillColor=#fff2cc;strokeColor=#d6b656;" edge="1" parent="48-ZhOprCwcdDd7WIKVf-1">
          <mxGeometry width="100" height="100" relative="1" as="geometry">
            <mxPoint x="570" y="850" as="sourcePoint" />
            <mxPoint x="570" y="700" as="targetPoint" />
          </mxGeometry>
        </mxCell>
        <mxCell id="dKIf8LmojB_R0N3gFvjE-26" value="POD&amp;nbsp; 内存" style="text;html=1;align=center;verticalAlign=middle;whiteSpace=wrap;rounded=0;fillColor=#d5e8d4;strokeColor=#82b366;" vertex="1" parent="48-ZhOprCwcdDd7WIKVf-1">
          <mxGeometry x="600" y="725" width="60" height="30" as="geometry" />
        </mxCell>
        <mxCell id="dKIf8LmojB_R0N3gFvjE-27" value="GC" style="text;html=1;align=center;verticalAlign=middle;whiteSpace=wrap;rounded=0;fillColor=#f8cecc;strokeColor=#b85450;" vertex="1" parent="48-ZhOprCwcdDd7WIKVf-1">
          <mxGeometry x="474" y="770" width="60" height="30" as="geometry" />
        </mxCell>
        <mxCell id="dKIf8LmojB_R0N3gFvjE-28" value="请求量" style="text;html=1;align=center;verticalAlign=middle;whiteSpace=wrap;rounded=0;fillColor=#e1d5e7;strokeColor=#9673a6;" vertex="1" parent="48-ZhOprCwcdDd7WIKVf-1">
          <mxGeometry x="600" y="770" width="60" height="30" as="geometry" />
        </mxCell>
        <mxCell id="dKIf8LmojB_R0N3gFvjE-31" value="其他指标" style="text;html=1;align=center;verticalAlign=middle;whiteSpace=wrap;rounded=0;fillColor=#f5f5f5;strokeColor=#666666;fontColor=#333333;" vertex="1" parent="48-ZhOprCwcdDd7WIKVf-1">
          <mxGeometry x="474" y="820" width="60" height="30" as="geometry" />
        </mxCell>
      </root>
    </mxGraphModel>
  </diagram>
  <diagram name="第 1 页 的副本" id="qgFvUX67H0nI6mCEl3Dj">
    <mxGraphModel dx="3447" dy="975" grid="1" gridSize="10" guides="1" tooltips="1" connect="1" arrows="1" fold="1" page="1" pageScale="1" pageWidth="827" pageHeight="1169" background="#ffffff" math="0" shadow="0">
      <root>
        <mxCell id="GNsj5mdw33LfKv4H4MdL-0" />
        <mxCell id="GNsj5mdw33LfKv4H4MdL-1" parent="GNsj5mdw33LfKv4H4MdL-0" />
        <mxCell id="GNsj5mdw33LfKv4H4MdL-2" value="&lt;font style=&quot;font-size: 20px;&quot;&gt;应用容器云&lt;br&gt;&lt;/font&gt;" style="ellipse;shape=cloud;whiteSpace=wrap;html=1;labelBackgroundColor=none;fillColor=#FAE5C7;strokeColor=#0F8B8D;fontColor=#143642;" parent="GNsj5mdw33LfKv4H4MdL-1" vertex="1">
          <mxGeometry x="498" y="130" width="278" height="130" as="geometry" />
        </mxCell>
        <mxCell id="GNsj5mdw33LfKv4H4MdL-3" value="指标采集" style="rounded=1;whiteSpace=wrap;html=1;labelBackgroundColor=none;fillColor=#FAE5C7;strokeColor=#0F8B8D;fontColor=#143642;" parent="GNsj5mdw33LfKv4H4MdL-1" vertex="1">
          <mxGeometry x="318" y="260" width="118" height="60" as="geometry" />
        </mxCell>
        <mxCell id="GNsj5mdw33LfKv4H4MdL-4" value="" style="shape=flexArrow;endArrow=classic;html=1;rounded=0;labelBackgroundColor=none;strokeColor=#A8201A;fontColor=default;" parent="GNsj5mdw33LfKv4H4MdL-1" edge="1">
          <mxGeometry width="50" height="50" relative="1" as="geometry">
            <mxPoint x="458" y="280" as="sourcePoint" />
            <mxPoint x="508" y="230" as="targetPoint" />
          </mxGeometry>
        </mxCell>
        <mxCell id="GNsj5mdw33LfKv4H4MdL-8" style="edgeStyle=orthogonalEdgeStyle;rounded=0;orthogonalLoop=1;jettySize=auto;html=1;labelBackgroundColor=none;strokeColor=#A8201A;fontColor=default;" parent="GNsj5mdw33LfKv4H4MdL-1" source="GNsj5mdw33LfKv4H4MdL-10" target="GNsj5mdw33LfKv4H4MdL-25" edge="1">
          <mxGeometry relative="1" as="geometry" />
        </mxCell>
        <mxCell id="GNsj5mdw33LfKv4H4MdL-9" style="edgeStyle=orthogonalEdgeStyle;rounded=0;orthogonalLoop=1;jettySize=auto;html=1;labelBackgroundColor=none;strokeColor=#A8201A;fontColor=default;" parent="GNsj5mdw33LfKv4H4MdL-1" source="GNsj5mdw33LfKv4H4MdL-10" target="GNsj5mdw33LfKv4H4MdL-24" edge="1">
          <mxGeometry relative="1" as="geometry" />
        </mxCell>
        <mxCell id="GNsj5mdw33LfKv4H4MdL-10" value="告警推送" style="rounded=1;whiteSpace=wrap;html=1;labelBackgroundColor=none;fillColor=#FAE5C7;strokeColor=#0F8B8D;fontColor=#143642;" parent="GNsj5mdw33LfKv4H4MdL-1" vertex="1">
          <mxGeometry x="318" y="900" width="118" height="60" as="geometry" />
        </mxCell>
        <mxCell id="GNsj5mdw33LfKv4H4MdL-11" value="" style="edgeStyle=orthogonalEdgeStyle;rounded=0;orthogonalLoop=1;jettySize=auto;html=1;labelBackgroundColor=none;strokeColor=#A8201A;fontColor=default;" parent="GNsj5mdw33LfKv4H4MdL-1" source="GNsj5mdw33LfKv4H4MdL-16" target="GNsj5mdw33LfKv4H4MdL-10" edge="1">
          <mxGeometry relative="1" as="geometry" />
        </mxCell>
        <mxCell id="GNsj5mdw33LfKv4H4MdL-12" style="edgeStyle=orthogonalEdgeStyle;rounded=0;orthogonalLoop=1;jettySize=auto;html=1;entryX=1;entryY=0.5;entryDx=0;entryDy=0;labelBackgroundColor=none;strokeColor=#A8201A;fontColor=default;" parent="GNsj5mdw33LfKv4H4MdL-1" source="GNsj5mdw33LfKv4H4MdL-16" target="GNsj5mdw33LfKv4H4MdL-28" edge="1">
          <mxGeometry relative="1" as="geometry" />
        </mxCell>
        <mxCell id="GNsj5mdw33LfKv4H4MdL-13" style="edgeStyle=orthogonalEdgeStyle;rounded=0;orthogonalLoop=1;jettySize=auto;html=1;labelBackgroundColor=none;strokeColor=#A8201A;fontColor=default;" parent="GNsj5mdw33LfKv4H4MdL-1" source="GNsj5mdw33LfKv4H4MdL-16" target="GNsj5mdw33LfKv4H4MdL-20" edge="1">
          <mxGeometry relative="1" as="geometry" />
        </mxCell>
        <mxCell id="GNsj5mdw33LfKv4H4MdL-14" style="edgeStyle=orthogonalEdgeStyle;rounded=0;orthogonalLoop=1;jettySize=auto;html=1;labelBackgroundColor=none;strokeColor=#A8201A;fontColor=default;" parent="GNsj5mdw33LfKv4H4MdL-1" source="GNsj5mdw33LfKv4H4MdL-16" target="GNsj5mdw33LfKv4H4MdL-27" edge="1">
          <mxGeometry relative="1" as="geometry" />
        </mxCell>
        <mxCell id="GNsj5mdw33LfKv4H4MdL-16" value="数据存储" style="rounded=1;whiteSpace=wrap;html=1;labelBackgroundColor=none;fillColor=#FAE5C7;strokeColor=#0F8B8D;fontColor=#143642;" parent="GNsj5mdw33LfKv4H4MdL-1" vertex="1">
          <mxGeometry x="318" y="710" width="118" height="60" as="geometry" />
        </mxCell>
        <mxCell id="GNsj5mdw33LfKv4H4MdL-17" value="决策模型" style="swimlane;whiteSpace=wrap;html=1;labelBackgroundColor=none;fillColor=#FAE5C7;strokeColor=#0F8B8D;fontColor=#143642;" parent="GNsj5mdw33LfKv4H4MdL-1" vertex="1">
          <mxGeometry x="98" y="370" width="558" height="200" as="geometry" />
        </mxCell>
        <mxCell id="GNsj5mdw33LfKv4H4MdL-5" value="&lt;div&gt;加权打分&lt;/div&gt;(传统阈值)" style="rounded=1;whiteSpace=wrap;html=1;labelBackgroundColor=none;fillColor=#FAE5C7;strokeColor=#0F8B8D;fontColor=#143642;" parent="GNsj5mdw33LfKv4H4MdL-17" vertex="1">
          <mxGeometry x="135" y="80" width="118" height="60" as="geometry" />
        </mxCell>
        <mxCell id="GNsj5mdw33LfKv4H4MdL-6" value="&lt;div&gt;异常检测&lt;/div&gt;&lt;div&gt;（指标波动）&lt;/div&gt;" style="rounded=1;whiteSpace=wrap;html=1;labelBackgroundColor=none;fillColor=#FAE5C7;strokeColor=#0F8B8D;fontColor=#143642;" parent="GNsj5mdw33LfKv4H4MdL-17" vertex="1">
          <mxGeometry x="305" y="80" width="118" height="60" as="geometry" />
        </mxCell>
        <mxCell id="GNsj5mdw33LfKv4H4MdL-20" value="服务巡检" style="rounded=1;whiteSpace=wrap;html=1;labelBackgroundColor=none;fillColor=#FAE5C7;strokeColor=#0F8B8D;fontColor=#143642;" parent="GNsj5mdw33LfKv4H4MdL-1" vertex="1">
          <mxGeometry x="40" y="760" width="118" height="60" as="geometry" />
        </mxCell>
        <mxCell id="GNsj5mdw33LfKv4H4MdL-21" value="" style="shape=flexArrow;endArrow=classic;html=1;rounded=0;labelBackgroundColor=none;strokeColor=#A8201A;fontColor=default;" parent="GNsj5mdw33LfKv4H4MdL-1" edge="1">
          <mxGeometry width="50" height="50" relative="1" as="geometry">
            <mxPoint x="377.5" y="600" as="sourcePoint" />
            <mxPoint x="377.5" y="670" as="targetPoint" />
          </mxGeometry>
        </mxCell>
        <mxCell id="GNsj5mdw33LfKv4H4MdL-22" value="" style="endArrow=none;dashed=1;html=1;rounded=0;labelBackgroundColor=none;strokeColor=#A8201A;fontColor=default;" parent="GNsj5mdw33LfKv4H4MdL-1" edge="1">
          <mxGeometry width="50" height="50" relative="1" as="geometry">
            <mxPoint x="-860" y="620" as="sourcePoint" />
            <mxPoint x="790" y="620" as="targetPoint" />
          </mxGeometry>
        </mxCell>
        <mxCell id="GNsj5mdw33LfKv4H4MdL-23" value="" style="endArrow=none;dashed=1;html=1;rounded=0;labelBackgroundColor=none;strokeColor=#A8201A;fontColor=default;" parent="GNsj5mdw33LfKv4H4MdL-1" edge="1">
          <mxGeometry width="50" height="50" relative="1" as="geometry">
            <mxPoint x="-860" y="840" as="sourcePoint" />
            <mxPoint x="790" y="840" as="targetPoint" />
          </mxGeometry>
        </mxCell>
        <mxCell id="GNsj5mdw33LfKv4H4MdL-24" value="一键上下线" style="rounded=1;whiteSpace=wrap;html=1;labelBackgroundColor=none;fillColor=#FAE5C7;strokeColor=#0F8B8D;fontColor=#143642;" parent="GNsj5mdw33LfKv4H4MdL-1" vertex="1">
          <mxGeometry x="536" y="900" width="120" height="60" as="geometry" />
        </mxCell>
        <mxCell id="GNsj5mdw33LfKv4H4MdL-25" value="&lt;div&gt;一键扩容&lt;/div&gt;&lt;div&gt;（待开发）&lt;/div&gt;" style="rounded=1;whiteSpace=wrap;html=1;labelBackgroundColor=none;fillColor=#FAE5C7;strokeColor=#0F8B8D;fontColor=#143642;" parent="GNsj5mdw33LfKv4H4MdL-1" vertex="1">
          <mxGeometry x="98" y="900" width="120" height="60" as="geometry" />
        </mxCell>
        <mxCell id="GNsj5mdw33LfKv4H4MdL-26" value="&lt;font style=&quot;font-size: 20px;&quot;&gt;应急方案&lt;/font&gt;" style="text;html=1;align=center;verticalAlign=middle;whiteSpace=wrap;rounded=0;labelBackgroundColor=none;fontColor=#143642;" parent="GNsj5mdw33LfKv4H4MdL-1" vertex="1">
          <mxGeometry x="-810" y="880" width="100" height="30" as="geometry" />
        </mxCell>
        <mxCell id="GNsj5mdw33LfKv4H4MdL-27" value="资源调整决策" style="rounded=1;whiteSpace=wrap;html=1;labelBackgroundColor=none;fillColor=#FAE5C7;strokeColor=#0F8B8D;fontColor=#143642;" parent="GNsj5mdw33LfKv4H4MdL-1" vertex="1">
          <mxGeometry x="599" y="760" width="120" height="60" as="geometry" />
        </mxCell>
        <mxCell id="9BQV9V1KPHAda7bylzTn-0" style="rounded=0;orthogonalLoop=1;jettySize=auto;html=1;" parent="GNsj5mdw33LfKv4H4MdL-1" source="GNsj5mdw33LfKv4H4MdL-28" target="GNsj5mdw33LfKv4H4MdL-5" edge="1">
          <mxGeometry relative="1" as="geometry" />
        </mxCell>
        <mxCell id="9BQV9V1KPHAda7bylzTn-1" value="Text" style="edgeLabel;html=1;align=center;verticalAlign=middle;resizable=0;points=[];" parent="9BQV9V1KPHAda7bylzTn-0" vertex="1" connectable="0">
          <mxGeometry x="0.0887" relative="1" as="geometry">
            <mxPoint as="offset" />
          </mxGeometry>
        </mxCell>
        <mxCell id="9BQV9V1KPHAda7bylzTn-2" value="Text" style="edgeLabel;html=1;align=center;verticalAlign=middle;resizable=0;points=[];" parent="9BQV9V1KPHAda7bylzTn-0" vertex="1" connectable="0">
          <mxGeometry x="0.1073" y="-1" relative="1" as="geometry">
            <mxPoint as="offset" />
          </mxGeometry>
        </mxCell>
        <mxCell id="GNsj5mdw33LfKv4H4MdL-28" value="阈值调整" style="rounded=1;whiteSpace=wrap;html=1;labelBackgroundColor=none;fillColor=#FAE5C7;strokeColor=#0F8B8D;fontColor=#143642;" parent="GNsj5mdw33LfKv4H4MdL-1" vertex="1">
          <mxGeometry x="40" y="650" width="118" height="60" as="geometry" />
        </mxCell>
        <mxCell id="GNsj5mdw33LfKv4H4MdL-29" value="&lt;font style=&quot;font-size: 20px;&quot;&gt;应急准备&lt;br&gt;&lt;/font&gt;" style="text;html=1;align=center;verticalAlign=middle;whiteSpace=wrap;rounded=0;labelBackgroundColor=none;fontColor=#143642;" parent="GNsj5mdw33LfKv4H4MdL-1" vertex="1">
          <mxGeometry x="-810" y="710" width="100" height="30" as="geometry" />
        </mxCell>
        <mxCell id="GNsj5mdw33LfKv4H4MdL-30" value="" style="endArrow=none;dashed=1;html=1;dashPattern=1 3;strokeWidth=2;rounded=0;labelBackgroundColor=none;strokeColor=#A8201A;fontColor=default;" parent="GNsj5mdw33LfKv4H4MdL-1" edge="1">
          <mxGeometry width="50" height="50" relative="1" as="geometry">
            <mxPoint y="1170" as="sourcePoint" />
            <mxPoint y="120" as="targetPoint" />
          </mxGeometry>
        </mxCell>
        <mxCell id="GNsj5mdw33LfKv4H4MdL-31" value="" style="endArrow=none;dashed=1;html=1;rounded=0;labelBackgroundColor=none;strokeColor=#A8201A;fontColor=default;" parent="GNsj5mdw33LfKv4H4MdL-1" edge="1">
          <mxGeometry width="50" height="50" relative="1" as="geometry">
            <mxPoint x="-860" y="1000" as="sourcePoint" />
            <mxPoint x="790" y="1000" as="targetPoint" />
          </mxGeometry>
        </mxCell>
        <mxCell id="GNsj5mdw33LfKv4H4MdL-32" value="&lt;font style=&quot;font-size: 20px;&quot;&gt;复盘分析&lt;br&gt;&lt;/font&gt;" style="text;html=1;align=center;verticalAlign=middle;whiteSpace=wrap;rounded=0;labelBackgroundColor=none;fontColor=#143642;" parent="GNsj5mdw33LfKv4H4MdL-1" vertex="1">
          <mxGeometry x="-810" y="1060" width="100" height="30" as="geometry" />
        </mxCell>
        <mxCell id="GNsj5mdw33LfKv4H4MdL-33" value="性能指标" style="rounded=1;whiteSpace=wrap;html=1;labelBackgroundColor=none;fillColor=#FAE5C7;strokeColor=#0F8B8D;fontColor=#143642;" parent="GNsj5mdw33LfKv4H4MdL-1" vertex="1">
          <mxGeometry x="190" y="1055" width="120" height="60" as="geometry" />
        </mxCell>
        <mxCell id="GNsj5mdw33LfKv4H4MdL-34" value="流量指标" style="rounded=1;whiteSpace=wrap;html=1;labelBackgroundColor=none;fillColor=#FAE5C7;strokeColor=#0F8B8D;fontColor=#143642;" parent="GNsj5mdw33LfKv4H4MdL-1" vertex="1">
          <mxGeometry x="520" y="1055" width="120" height="60" as="geometry" />
        </mxCell>
        <mxCell id="GNsj5mdw33LfKv4H4MdL-35" value="&lt;font style=&quot;font-size: 20px;&quot;&gt;运维监控平台&lt;/font&gt;" style="text;html=1;align=center;verticalAlign=middle;whiteSpace=wrap;rounded=0;labelBackgroundColor=none;fontColor=#143642;" parent="GNsj5mdw33LfKv4H4MdL-1" vertex="1">
          <mxGeometry x="38" y="170" width="132" height="30" as="geometry" />
        </mxCell>
        <mxCell id="GNsj5mdw33LfKv4H4MdL-36" value="&lt;font style=&quot;font-size: 20px;&quot;&gt;微服务管理平台&lt;br&gt;&lt;/font&gt;" style="text;html=1;align=center;verticalAlign=middle;whiteSpace=wrap;rounded=0;labelBackgroundColor=none;fontColor=#143642;" parent="GNsj5mdw33LfKv4H4MdL-1" vertex="1">
          <mxGeometry x="-190" y="170" width="152" height="30" as="geometry" />
        </mxCell>
        <mxCell id="GNsj5mdw33LfKv4H4MdL-37" value="生产A" style="ellipse;shape=cloud;whiteSpace=wrap;html=1;labelBackgroundColor=none;fillColor=#FAE5C7;strokeColor=#0F8B8D;fontColor=#143642;" parent="GNsj5mdw33LfKv4H4MdL-1" vertex="1">
          <mxGeometry x="-650" y="470" width="120" height="80" as="geometry" />
        </mxCell>
        <mxCell id="GNsj5mdw33LfKv4H4MdL-38" value="生产B" style="ellipse;shape=cloud;whiteSpace=wrap;html=1;labelBackgroundColor=none;fillColor=#FAE5C7;strokeColor=#0F8B8D;fontColor=#143642;" parent="GNsj5mdw33LfKv4H4MdL-1" vertex="1">
          <mxGeometry x="-449" y="470" width="120" height="80" as="geometry" />
        </mxCell>
        <mxCell id="GNsj5mdw33LfKv4H4MdL-39" value="生产D" style="ellipse;shape=cloud;whiteSpace=wrap;html=1;labelBackgroundColor=none;fillColor=#FAE5C7;strokeColor=#0F8B8D;fontColor=#143642;" parent="GNsj5mdw33LfKv4H4MdL-1" vertex="1">
          <mxGeometry x="-230" y="470" width="120" height="80" as="geometry" />
        </mxCell>
        <mxCell id="GNsj5mdw33LfKv4H4MdL-40" style="edgeStyle=orthogonalEdgeStyle;rounded=0;orthogonalLoop=1;jettySize=auto;html=1;labelBackgroundColor=none;strokeColor=#A8201A;fontColor=default;" parent="GNsj5mdw33LfKv4H4MdL-1" source="GNsj5mdw33LfKv4H4MdL-43" target="GNsj5mdw33LfKv4H4MdL-37" edge="1">
          <mxGeometry relative="1" as="geometry" />
        </mxCell>
        <mxCell id="GNsj5mdw33LfKv4H4MdL-41" value="" style="edgeStyle=orthogonalEdgeStyle;rounded=0;orthogonalLoop=1;jettySize=auto;html=1;labelBackgroundColor=none;strokeColor=#A8201A;fontColor=default;" parent="GNsj5mdw33LfKv4H4MdL-1" source="GNsj5mdw33LfKv4H4MdL-43" target="GNsj5mdw33LfKv4H4MdL-38" edge="1">
          <mxGeometry relative="1" as="geometry" />
        </mxCell>
        <mxCell id="GNsj5mdw33LfKv4H4MdL-43" value="&lt;font style=&quot;font-size: 20px;&quot;&gt;承保流量切换&lt;br&gt;&lt;/font&gt;" style="rounded=1;whiteSpace=wrap;html=1;labelBackgroundColor=none;fillColor=#FAE5C7;strokeColor=#0F8B8D;fontColor=#143642;" parent="GNsj5mdw33LfKv4H4MdL-1" vertex="1">
          <mxGeometry x="-449" y="350" width="120" height="60" as="geometry" />
        </mxCell>
        <mxCell id="GNsj5mdw33LfKv4H4MdL-44" value="" style="edgeStyle=orthogonalEdgeStyle;rounded=0;orthogonalLoop=1;jettySize=auto;html=1;labelBackgroundColor=none;strokeColor=#A8201A;fontColor=default;" parent="GNsj5mdw33LfKv4H4MdL-1" source="GNsj5mdw33LfKv4H4MdL-45" target="GNsj5mdw33LfKv4H4MdL-43" edge="1">
          <mxGeometry relative="1" as="geometry" />
        </mxCell>
        <mxCell id="GNsj5mdw33LfKv4H4MdL-45" value="&lt;font style=&quot;font-size: 20px;&quot;&gt;统一工作台&lt;font style=&quot;font-size: 20px;&quot;&gt;入口&lt;br&gt;&lt;/font&gt;&lt;/font&gt;" style="rounded=1;whiteSpace=wrap;html=1;labelBackgroundColor=none;fillColor=#FAE5C7;strokeColor=#0F8B8D;fontColor=#143642;" parent="GNsj5mdw33LfKv4H4MdL-1" vertex="1">
          <mxGeometry x="-450" y="190" width="120" height="60" as="geometry" />
        </mxCell>
        <mxCell id="GNsj5mdw33LfKv4H4MdL-46" value="" style="endArrow=classic;startArrow=classic;html=1;rounded=0;labelBackgroundColor=none;strokeColor=#A8201A;fontColor=default;" parent="GNsj5mdw33LfKv4H4MdL-1" edge="1">
          <mxGeometry width="50" height="50" relative="1" as="geometry">
            <mxPoint x="-460" y="780" as="sourcePoint" />
            <mxPoint x="-270" y="780" as="targetPoint" />
            <Array as="points" />
          </mxGeometry>
        </mxCell>
        <mxCell id="GNsj5mdw33LfKv4H4MdL-47" value="Text" style="edgeLabel;html=1;align=center;verticalAlign=middle;resizable=0;points=[];labelBackgroundColor=none;fontColor=#143642;" parent="GNsj5mdw33LfKv4H4MdL-46" vertex="1" connectable="0">
          <mxGeometry x="-0.1474" y="-2" relative="1" as="geometry">
            <mxPoint x="11" y="1" as="offset" />
          </mxGeometry>
        </mxCell>
        <mxCell id="GNsj5mdw33LfKv4H4MdL-48" value="&lt;font style=&quot;font-size: 20px;&quot;&gt;周一拉齐AD&lt;/font&gt;" style="edgeLabel;html=1;align=center;verticalAlign=middle;resizable=0;points=[];labelBackgroundColor=none;fontColor=#143642;" parent="GNsj5mdw33LfKv4H4MdL-46" vertex="1" connectable="0">
          <mxGeometry x="0.0105" y="-4" relative="1" as="geometry">
            <mxPoint x="-6" y="-3" as="offset" />
          </mxGeometry>
        </mxCell>
        <mxCell id="GNsj5mdw33LfKv4H4MdL-49" value="" style="endArrow=classic;html=1;rounded=0;labelBackgroundColor=none;strokeColor=#A8201A;fontColor=default;" parent="GNsj5mdw33LfKv4H4MdL-1" edge="1">
          <mxGeometry width="50" height="50" relative="1" as="geometry">
            <mxPoint x="-389.5" y="680" as="sourcePoint" />
            <mxPoint x="-389.5" y="570" as="targetPoint" />
          </mxGeometry>
        </mxCell>
        <mxCell id="GNsj5mdw33LfKv4H4MdL-50" value="&lt;font style=&quot;font-size: 20px;&quot;&gt;周五升级&lt;br&gt;&lt;/font&gt;" style="edgeLabel;html=1;align=center;verticalAlign=middle;resizable=0;points=[];labelBackgroundColor=none;fontColor=#143642;" parent="GNsj5mdw33LfKv4H4MdL-49" vertex="1" connectable="0">
          <mxGeometry x="-0.1818" relative="1" as="geometry">
            <mxPoint x="1" as="offset" />
          </mxGeometry>
        </mxCell>
        <mxCell id="GNsj5mdw33LfKv4H4MdL-51" value="&lt;font style=&quot;font-size: 20px;&quot;&gt;版本管理&lt;br&gt;&lt;/font&gt;" style="rounded=1;whiteSpace=wrap;html=1;labelBackgroundColor=none;fillColor=#FAE5C7;strokeColor=#0F8B8D;fontColor=#143642;" parent="GNsj5mdw33LfKv4H4MdL-1" vertex="1">
          <mxGeometry x="-449" y="690" width="120" height="60" as="geometry" />
        </mxCell>
        <mxCell id="GNsj5mdw33LfKv4H4MdL-52" value="&lt;font style=&quot;font-size: 20px;&quot;&gt;流量切换&lt;br&gt;&lt;/font&gt;" style="rounded=1;whiteSpace=wrap;html=1;labelBackgroundColor=none;fillColor=#FAE5C7;strokeColor=#0F8B8D;fontColor=#143642;" parent="GNsj5mdw33LfKv4H4MdL-1" vertex="1">
          <mxGeometry x="-449" y="890" width="120" height="60" as="geometry" />
        </mxCell>
        <mxCell id="GNsj5mdw33LfKv4H4MdL-53" style="edgeStyle=orthogonalEdgeStyle;rounded=0;orthogonalLoop=1;jettySize=auto;html=1;labelBackgroundColor=none;strokeColor=#A8201A;fontColor=default;" parent="GNsj5mdw33LfKv4H4MdL-1" source="GNsj5mdw33LfKv4H4MdL-54" target="GNsj5mdw33LfKv4H4MdL-43" edge="1">
          <mxGeometry relative="1" as="geometry">
            <Array as="points">
              <mxPoint x="-640" y="310" />
              <mxPoint x="-389" y="310" />
            </Array>
          </mxGeometry>
        </mxCell>
        <mxCell id="GNsj5mdw33LfKv4H4MdL-54" value="&lt;font style=&quot;font-size: 20px;&quot;&gt;统一工作台&lt;font style=&quot;font-size: 20px;&quot;&gt;入口（2）&lt;/font&gt;&lt;/font&gt;" style="rounded=1;whiteSpace=wrap;html=1;dashed=1;labelBackgroundColor=none;fillColor=#bac8d3;strokeColor=#23445d;" parent="GNsj5mdw33LfKv4H4MdL-1" vertex="1">
          <mxGeometry x="-700" y="190" width="120" height="60" as="geometry" />
        </mxCell>
        <mxCell id="BWQmoAMBdqLcJ_cEGr4A-1" value="" style="rounded=0;orthogonalLoop=1;jettySize=auto;html=1;" parent="GNsj5mdw33LfKv4H4MdL-1" source="BWQmoAMBdqLcJ_cEGr4A-0" target="GNsj5mdw33LfKv4H4MdL-39" edge="1">
          <mxGeometry relative="1" as="geometry" />
        </mxCell>
        <mxCell id="9BQV9V1KPHAda7bylzTn-4" style="rounded=0;orthogonalLoop=1;jettySize=auto;html=1;" parent="GNsj5mdw33LfKv4H4MdL-1" target="GNsj5mdw33LfKv4H4MdL-38" edge="1">
          <mxGeometry relative="1" as="geometry">
            <mxPoint x="-220.4959162783971" y="410" as="sourcePoint" />
          </mxGeometry>
        </mxCell>
        <mxCell id="BWQmoAMBdqLcJ_cEGr4A-0" value="&lt;font style=&quot;font-size: 20px;&quot;&gt;渠道流量切换&lt;/font&gt;" style="rounded=1;whiteSpace=wrap;html=1;labelBackgroundColor=none;fillColor=#FAE5C7;strokeColor=#0F8B8D;fontColor=#143642;" parent="GNsj5mdw33LfKv4H4MdL-1" vertex="1">
          <mxGeometry x="-240" y="350" width="120" height="60" as="geometry" />
        </mxCell>
      </root>
    </mxGraphModel>
  </diagram>
  <diagram id="F9EZPxa3hE7anO53Jg29" name="第 2 页">
    <mxGraphModel dx="1368" dy="790" grid="1" gridSize="10" guides="1" tooltips="1" connect="1" arrows="1" fold="1" page="1" pageScale="1" pageWidth="827" pageHeight="1169" math="0" shadow="0">
      <root>
        <mxCell id="0" />
        <mxCell id="1" parent="0" />
        <mxCell id="5-ArXRMiUn5XWJKNcHc_-7" style="edgeStyle=orthogonalEdgeStyle;rounded=0;orthogonalLoop=1;jettySize=auto;html=1;curved=1;labelBackgroundColor=none;strokeColor=#A8201A;fontColor=default;" parent="1" source="5-ArXRMiUn5XWJKNcHc_-1" target="5-ArXRMiUn5XWJKNcHc_-2" edge="1">
          <mxGeometry relative="1" as="geometry" />
        </mxCell>
        <mxCell id="5-ArXRMiUn5XWJKNcHc_-1" value="&lt;font style=&quot;font-size: 20px;&quot;&gt;输入&lt;/font&gt;" style="rounded=1;whiteSpace=wrap;html=1;labelBackgroundColor=none;fillColor=#FAE5C7;strokeColor=#0F8B8D;fontColor=#143642;" parent="1" vertex="1">
          <mxGeometry x="330" y="150" width="120" height="60" as="geometry" />
        </mxCell>
        <mxCell id="5-ArXRMiUn5XWJKNcHc_-9" style="edgeStyle=orthogonalEdgeStyle;rounded=0;orthogonalLoop=1;jettySize=auto;html=1;entryX=0.5;entryY=1;entryDx=0;entryDy=0;curved=1;labelBackgroundColor=none;strokeColor=#A8201A;fontColor=default;" parent="1" source="5-ArXRMiUn5XWJKNcHc_-2" target="5-ArXRMiUn5XWJKNcHc_-3" edge="1">
          <mxGeometry relative="1" as="geometry">
            <Array as="points">
              <mxPoint x="240" y="340" />
            </Array>
          </mxGeometry>
        </mxCell>
        <mxCell id="5-ArXRMiUn5XWJKNcHc_-2" value="&lt;font style=&quot;font-size: 20px;&quot;&gt;训练&lt;/font&gt;" style="rounded=1;whiteSpace=wrap;html=1;labelBackgroundColor=none;fillColor=#FAE5C7;strokeColor=#0F8B8D;fontColor=#143642;" parent="1" vertex="1">
          <mxGeometry x="470" y="240" width="120" height="60" as="geometry" />
        </mxCell>
        <mxCell id="5-ArXRMiUn5XWJKNcHc_-11" style="edgeStyle=orthogonalEdgeStyle;rounded=0;orthogonalLoop=1;jettySize=auto;html=1;entryX=0;entryY=0.5;entryDx=0;entryDy=0;curved=1;labelBackgroundColor=none;strokeColor=#A8201A;fontColor=default;" parent="1" source="5-ArXRMiUn5XWJKNcHc_-3" target="5-ArXRMiUn5XWJKNcHc_-1" edge="1">
          <mxGeometry relative="1" as="geometry">
            <Array as="points">
              <mxPoint x="220" y="180" />
            </Array>
          </mxGeometry>
        </mxCell>
        <mxCell id="5-ArXRMiUn5XWJKNcHc_-14" style="rounded=0;orthogonalLoop=1;jettySize=auto;html=1;dashed=1;labelBackgroundColor=none;strokeColor=#A8201A;fontColor=default;" parent="1" source="5-ArXRMiUn5XWJKNcHc_-3" target="5-ArXRMiUn5XWJKNcHc_-5" edge="1">
          <mxGeometry relative="1" as="geometry" />
        </mxCell>
        <mxCell id="5-ArXRMiUn5XWJKNcHc_-3" value="&lt;font style=&quot;font-size: 20px;&quot;&gt;模型&lt;/font&gt;" style="rounded=1;whiteSpace=wrap;html=1;labelBackgroundColor=none;fillColor=#FAE5C7;strokeColor=#0F8B8D;fontColor=#143642;" parent="1" vertex="1">
          <mxGeometry x="180" y="230" width="120" height="60" as="geometry" />
        </mxCell>
        <mxCell id="5-ArXRMiUn5XWJKNcHc_-12" style="rounded=0;orthogonalLoop=1;jettySize=auto;html=1;dashed=1;labelBackgroundColor=none;strokeColor=#A8201A;fontColor=default;" parent="1" source="5-ArXRMiUn5XWJKNcHc_-4" edge="1">
          <mxGeometry relative="1" as="geometry">
            <mxPoint x="160" y="220" as="targetPoint" />
          </mxGeometry>
        </mxCell>
        <mxCell id="5-ArXRMiUn5XWJKNcHc_-4" value="&lt;font style=&quot;font-size: 20px;&quot;&gt;测试&lt;/font&gt;" style="text;html=1;align=center;verticalAlign=middle;whiteSpace=wrap;rounded=0;labelBackgroundColor=none;fontColor=#143642;" parent="1" vertex="1">
          <mxGeometry x="50" y="150" width="60" height="30" as="geometry" />
        </mxCell>
        <mxCell id="5-ArXRMiUn5XWJKNcHc_-5" value="&lt;font style=&quot;font-size: 20px;&quot;&gt;预测&lt;/font&gt;" style="text;html=1;align=center;verticalAlign=middle;whiteSpace=wrap;rounded=0;labelBackgroundColor=none;fontColor=#143642;" parent="1" vertex="1">
          <mxGeometry x="70" y="340" width="60" height="30" as="geometry" />
        </mxCell>
        <mxCell id="5-ArXRMiUn5XWJKNcHc_-15" value="在线异常检测" style="swimlane;whiteSpace=wrap;html=1;labelBackgroundColor=none;fillColor=#FAE5C7;strokeColor=#0F8B8D;fontColor=#143642;" parent="1" vertex="1">
          <mxGeometry x="30" y="65" width="650" height="410" as="geometry" />
        </mxCell>
        <mxCell id="5-ArXRMiUn5XWJKNcHc_-26" value="&lt;font style=&quot;font-size: 20px;&quot;&gt;基于霍夫丁树机器学习算法实现异常漂移检测&lt;/font&gt;" style="text;html=1;align=center;verticalAlign=middle;whiteSpace=wrap;rounded=0;labelBackgroundColor=none;fontColor=#143642;" parent="5-ArXRMiUn5XWJKNcHc_-15" vertex="1">
          <mxGeometry x="120" y="340" width="410" height="30" as="geometry" />
        </mxCell>
        <mxCell id="5-ArXRMiUn5XWJKNcHc_-16" value="离线监督学习" style="swimlane;whiteSpace=wrap;html=1;labelBackgroundColor=none;fillColor=#FAE5C7;strokeColor=#0F8B8D;fontColor=#143642;" parent="1" vertex="1">
          <mxGeometry x="730" y="30" width="670" height="550" as="geometry" />
        </mxCell>
        <mxCell id="5-ArXRMiUn5XWJKNcHc_-21" style="edgeStyle=orthogonalEdgeStyle;rounded=0;orthogonalLoop=1;jettySize=auto;html=1;entryX=0.5;entryY=0;entryDx=0;entryDy=0;labelBackgroundColor=none;strokeColor=#A8201A;fontColor=default;" parent="5-ArXRMiUn5XWJKNcHc_-16" source="5-ArXRMiUn5XWJKNcHc_-17" target="5-ArXRMiUn5XWJKNcHc_-18" edge="1">
          <mxGeometry relative="1" as="geometry" />
        </mxCell>
        <mxCell id="5-ArXRMiUn5XWJKNcHc_-17" value="监控数据" style="ellipse;shape=cloud;whiteSpace=wrap;html=1;labelBackgroundColor=none;fillColor=#FAE5C7;strokeColor=#0F8B8D;fontColor=#143642;" parent="5-ArXRMiUn5XWJKNcHc_-16" vertex="1">
          <mxGeometry x="120" y="60" width="120" height="80" as="geometry" />
        </mxCell>
        <mxCell id="5-ArXRMiUn5XWJKNcHc_-20" style="edgeStyle=orthogonalEdgeStyle;rounded=0;orthogonalLoop=1;jettySize=auto;html=1;labelBackgroundColor=none;strokeColor=#A8201A;fontColor=default;" parent="5-ArXRMiUn5XWJKNcHc_-16" source="5-ArXRMiUn5XWJKNcHc_-18" target="5-ArXRMiUn5XWJKNcHc_-19" edge="1">
          <mxGeometry relative="1" as="geometry" />
        </mxCell>
        <mxCell id="5-ArXRMiUn5XWJKNcHc_-18" value="&lt;font style=&quot;font-size: 20px;&quot;&gt;训练&lt;br&gt;&lt;/font&gt;" style="rounded=1;whiteSpace=wrap;html=1;labelBackgroundColor=none;fillColor=#FAE5C7;strokeColor=#0F8B8D;fontColor=#143642;" parent="5-ArXRMiUn5XWJKNcHc_-16" vertex="1">
          <mxGeometry x="120" y="230" width="120" height="60" as="geometry" />
        </mxCell>
        <mxCell id="5-ArXRMiUn5XWJKNcHc_-25" value="" style="edgeStyle=orthogonalEdgeStyle;rounded=0;orthogonalLoop=1;jettySize=auto;html=1;labelBackgroundColor=none;strokeColor=#A8201A;fontColor=default;" parent="5-ArXRMiUn5XWJKNcHc_-16" source="5-ArXRMiUn5XWJKNcHc_-19" target="5-ArXRMiUn5XWJKNcHc_-22" edge="1">
          <mxGeometry relative="1" as="geometry" />
        </mxCell>
        <mxCell id="5-ArXRMiUn5XWJKNcHc_-19" value="&lt;font style=&quot;font-size: 20px;&quot;&gt;模型&lt;/font&gt;" style="rounded=1;whiteSpace=wrap;html=1;labelBackgroundColor=none;fillColor=#FAE5C7;strokeColor=#0F8B8D;fontColor=#143642;" parent="5-ArXRMiUn5XWJKNcHc_-16" vertex="1">
          <mxGeometry x="410" y="230" width="120" height="60" as="geometry" />
        </mxCell>
        <mxCell id="5-ArXRMiUn5XWJKNcHc_-22" value="&lt;font style=&quot;font-size: 20px;&quot;&gt;输出&lt;br&gt;&lt;/font&gt;" style="rounded=1;whiteSpace=wrap;html=1;labelBackgroundColor=none;fillColor=#FAE5C7;strokeColor=#0F8B8D;fontColor=#143642;" parent="5-ArXRMiUn5XWJKNcHc_-16" vertex="1">
          <mxGeometry x="410" y="80" width="120" height="60" as="geometry" />
        </mxCell>
        <mxCell id="5-ArXRMiUn5XWJKNcHc_-24" value="" style="edgeStyle=orthogonalEdgeStyle;rounded=0;orthogonalLoop=1;jettySize=auto;html=1;labelBackgroundColor=none;strokeColor=#A8201A;fontColor=default;" parent="5-ArXRMiUn5XWJKNcHc_-16" source="5-ArXRMiUn5XWJKNcHc_-23" target="5-ArXRMiUn5XWJKNcHc_-19" edge="1">
          <mxGeometry relative="1" as="geometry" />
        </mxCell>
        <mxCell id="5-ArXRMiUn5XWJKNcHc_-23" value="&lt;font style=&quot;font-size: 20px;&quot;&gt;输入&lt;/font&gt;" style="rounded=1;whiteSpace=wrap;html=1;labelBackgroundColor=none;fillColor=#FAE5C7;strokeColor=#0F8B8D;fontColor=#143642;" parent="5-ArXRMiUn5XWJKNcHc_-16" vertex="1">
          <mxGeometry x="410" y="360" width="120" height="60" as="geometry" />
        </mxCell>
        <mxCell id="5-ArXRMiUn5XWJKNcHc_-27" value="&lt;font style=&quot;font-size: 20px;&quot;&gt;基于人工神经网络机器学习算法实现不健康指标识别&lt;/font&gt;" style="text;html=1;align=center;verticalAlign=middle;whiteSpace=wrap;rounded=0;labelBackgroundColor=none;fontColor=#143642;" parent="5-ArXRMiUn5XWJKNcHc_-16" vertex="1">
          <mxGeometry x="100" y="490" width="470" height="30" as="geometry" />
        </mxCell>
      </root>
    </mxGraphModel>
  </diagram>
  <diagram id="NfdHchZV7y0ubfdXzs1O" name="第 3 页">
    <mxGraphModel dx="1368" dy="790" grid="1" gridSize="10" guides="1" tooltips="1" connect="1" arrows="1" fold="1" page="1" pageScale="1" pageWidth="827" pageHeight="1169" math="0" shadow="0">
      <root>
        <mxCell id="0" />
        <mxCell id="1" parent="0" />
        <mxCell id="I5vDsI7NhCTPVJsy7nev-8" value="" style="edgeStyle=orthogonalEdgeStyle;rounded=0;orthogonalLoop=1;jettySize=auto;html=1;strokeColor=#A8201A;fontColor=#143642;fillColor=#FAE5C7;" edge="1" parent="1" source="I5vDsI7NhCTPVJsy7nev-4" target="I5vDsI7NhCTPVJsy7nev-7">
          <mxGeometry relative="1" as="geometry" />
        </mxCell>
        <mxCell id="I5vDsI7NhCTPVJsy7nev-4" value="指标打分" style="swimlane;horizontal=0;whiteSpace=wrap;html=1;strokeColor=#0F8B8D;fontColor=#143642;fillColor=#FAE5C7;startSize=23;" vertex="1" parent="1">
          <mxGeometry x="214" y="100" width="286" height="190" as="geometry" />
        </mxCell>
        <mxCell id="I5vDsI7NhCTPVJsy7nev-2" value="&lt;font style=&quot;font-size: 20px;&quot;&gt;指标阈值和权重&lt;br&gt;&lt;/font&gt;" style="rounded=1;whiteSpace=wrap;html=1;strokeColor=#0F8B8D;fontColor=#143642;fillColor=#FAE5C7;" vertex="1" parent="I5vDsI7NhCTPVJsy7nev-4">
          <mxGeometry x="90" y="100" width="160" height="60" as="geometry" />
        </mxCell>
        <mxCell id="I5vDsI7NhCTPVJsy7nev-1" value="&lt;font style=&quot;font-size: 20px;&quot;&gt;指标项目&lt;br&gt;&lt;/font&gt;" style="rounded=1;whiteSpace=wrap;html=1;strokeColor=#0F8B8D;fontColor=#143642;fillColor=#FAE5C7;" vertex="1" parent="I5vDsI7NhCTPVJsy7nev-4">
          <mxGeometry x="100" y="20" width="120" height="60" as="geometry" />
        </mxCell>
        <mxCell id="I5vDsI7NhCTPVJsy7nev-5" value="&lt;font style=&quot;font-size: 20px;&quot;&gt;指标采集&lt;/font&gt;" style="rounded=1;whiteSpace=wrap;html=1;strokeColor=#0F8B8D;fontColor=#143642;fillColor=#FAE5C7;" vertex="1" parent="1">
          <mxGeometry x="30" y="170" width="120" height="60" as="geometry" />
        </mxCell>
        <mxCell id="I5vDsI7NhCTPVJsy7nev-6" style="edgeStyle=orthogonalEdgeStyle;rounded=0;orthogonalLoop=1;jettySize=auto;html=1;entryX=0.015;entryY=0.533;entryDx=0;entryDy=0;entryPerimeter=0;strokeColor=#A8201A;fontColor=#143642;fillColor=#FAE5C7;" edge="1" parent="1" source="I5vDsI7NhCTPVJsy7nev-5" target="I5vDsI7NhCTPVJsy7nev-4">
          <mxGeometry relative="1" as="geometry" />
        </mxCell>
        <mxCell id="I5vDsI7NhCTPVJsy7nev-11" style="rounded=0;orthogonalLoop=1;jettySize=auto;html=1;entryX=0;entryY=0.5;entryDx=0;entryDy=0;strokeColor=#A8201A;fontColor=#143642;fillColor=#FAE5C7;" edge="1" parent="1" source="I5vDsI7NhCTPVJsy7nev-7" target="I5vDsI7NhCTPVJsy7nev-10">
          <mxGeometry relative="1" as="geometry" />
        </mxCell>
        <mxCell id="I5vDsI7NhCTPVJsy7nev-12" style="rounded=0;orthogonalLoop=1;jettySize=auto;html=1;entryX=0;entryY=0.25;entryDx=0;entryDy=0;strokeColor=#A8201A;fontColor=#143642;fillColor=#FAE5C7;" edge="1" parent="1" source="I5vDsI7NhCTPVJsy7nev-7" target="I5vDsI7NhCTPVJsy7nev-9">
          <mxGeometry relative="1" as="geometry" />
        </mxCell>
        <mxCell id="I5vDsI7NhCTPVJsy7nev-7" value="&lt;font style=&quot;font-size: 20px;&quot;&gt;分数存储&lt;/font&gt;" style="rounded=1;whiteSpace=wrap;html=1;strokeColor=#0F8B8D;fontColor=#143642;fillColor=#FAE5C7;" vertex="1" parent="1">
          <mxGeometry x="570" y="165" width="120" height="60" as="geometry" />
        </mxCell>
        <mxCell id="I5vDsI7NhCTPVJsy7nev-9" value="&lt;font style=&quot;font-size: 20px;&quot;&gt;页面展示&lt;/font&gt;" style="rounded=1;whiteSpace=wrap;html=1;strokeColor=#0F8B8D;fontColor=#143642;fillColor=#FAE5C7;" vertex="1" parent="1">
          <mxGeometry x="700" y="60" width="120" height="60" as="geometry" />
        </mxCell>
        <mxCell id="I5vDsI7NhCTPVJsy7nev-10" value="&lt;font style=&quot;font-size: 20px;&quot;&gt;离线分析&lt;/font&gt;" style="rounded=1;whiteSpace=wrap;html=1;strokeColor=#0F8B8D;fontColor=#143642;fillColor=#FAE5C7;" vertex="1" parent="1">
          <mxGeometry x="707" y="250" width="120" height="60" as="geometry" />
        </mxCell>
      </root>
    </mxGraphModel>
  </diagram>
  <diagram id="7TbmkSlF2dYwNL4UBZ6O" name="第 5 页">
    <mxGraphModel dx="1609" dy="929" grid="1" gridSize="10" guides="1" tooltips="1" connect="1" arrows="1" fold="1" page="1" pageScale="1" pageWidth="827" pageHeight="1169" math="0" shadow="0">
      <root>
        <mxCell id="0" />
        <mxCell id="1" parent="0" />
        <mxCell id="xBiqOyVqdurxUvnj9MYU-1" value="" style="shape=ext;double=1;whiteSpace=wrap;html=1;aspect=fixed;fillColor=#f8cecc;strokeColor=#b85450;" vertex="1" parent="1">
          <mxGeometry x="123" y="111" width="270" height="270" as="geometry" />
        </mxCell>
        <mxCell id="xBiqOyVqdurxUvnj9MYU-2" value="" style="shape=ext;double=1;whiteSpace=wrap;html=1;aspect=fixed;fillColor=#d5e8d4;strokeColor=#82b366;" vertex="1" parent="1">
          <mxGeometry x="392" y="111" width="270" height="270" as="geometry" />
        </mxCell>
        <mxCell id="xBiqOyVqdurxUvnj9MYU-3" value="传统监控" style="text;strokeColor=none;fillColor=none;html=1;fontSize=24;fontStyle=1;verticalAlign=middle;align=center;" vertex="1" parent="1">
          <mxGeometry x="270" y="120" width="100" height="40" as="geometry" />
        </mxCell>
        <mxCell id="xBiqOyVqdurxUvnj9MYU-4" value="模型监控" style="text;strokeColor=none;fillColor=none;html=1;fontSize=24;fontStyle=1;verticalAlign=middle;align=center;" vertex="1" parent="1">
          <mxGeometry x="400" y="120" width="100" height="40" as="geometry" />
        </mxCell>
        <mxCell id="xBiqOyVqdurxUvnj9MYU-10" value="" style="rounded=0;orthogonalLoop=1;jettySize=auto;html=1;" edge="1" parent="1" source="xBiqOyVqdurxUvnj9MYU-5" target="xBiqOyVqdurxUvnj9MYU-9">
          <mxGeometry relative="1" as="geometry" />
        </mxCell>
        <mxCell id="xBiqOyVqdurxUvnj9MYU-32" value="D" style="edgeLabel;html=1;align=center;verticalAlign=middle;resizable=0;points=[];" vertex="1" connectable="0" parent="xBiqOyVqdurxUvnj9MYU-10">
          <mxGeometry x="0.1171" y="4" relative="1" as="geometry">
            <mxPoint as="offset" />
          </mxGeometry>
        </mxCell>
        <mxCell id="xBiqOyVqdurxUvnj9MYU-5" value="" style="shape=waypoint;sketch=0;fillStyle=solid;size=6;pointerEvents=1;points=[];fillColor=none;resizable=0;rotatable=0;perimeter=centerPerimeter;snapToPoint=1;" vertex="1" parent="1">
          <mxGeometry x="199" y="340" width="20" height="20" as="geometry" />
        </mxCell>
        <mxCell id="xBiqOyVqdurxUvnj9MYU-11" value="" style="rounded=0;orthogonalLoop=1;jettySize=auto;html=1;" edge="1" parent="1" source="xBiqOyVqdurxUvnj9MYU-6" target="xBiqOyVqdurxUvnj9MYU-9">
          <mxGeometry relative="1" as="geometry" />
        </mxCell>
        <mxCell id="xBiqOyVqdurxUvnj9MYU-31" value="C" style="edgeLabel;html=1;align=center;verticalAlign=middle;resizable=0;points=[];" vertex="1" connectable="0" parent="xBiqOyVqdurxUvnj9MYU-11">
          <mxGeometry x="-0.1474" y="-2" relative="1" as="geometry">
            <mxPoint x="-2" y="-15" as="offset" />
          </mxGeometry>
        </mxCell>
        <mxCell id="xBiqOyVqdurxUvnj9MYU-6" value="" style="shape=waypoint;sketch=0;fillStyle=solid;size=6;pointerEvents=1;points=[];fillColor=none;resizable=0;rotatable=0;perimeter=centerPerimeter;snapToPoint=1;" vertex="1" parent="1">
          <mxGeometry x="229" y="340" width="20" height="20" as="geometry" />
        </mxCell>
        <mxCell id="xBiqOyVqdurxUvnj9MYU-12" value="" style="rounded=0;orthogonalLoop=1;jettySize=auto;html=1;" edge="1" parent="1" source="xBiqOyVqdurxUvnj9MYU-7" target="xBiqOyVqdurxUvnj9MYU-9">
          <mxGeometry relative="1" as="geometry" />
        </mxCell>
        <mxCell id="xBiqOyVqdurxUvnj9MYU-30" value="B" style="edgeLabel;html=1;align=center;verticalAlign=middle;resizable=0;points=[];" vertex="1" connectable="0" parent="xBiqOyVqdurxUvnj9MYU-12">
          <mxGeometry x="-0.0559" relative="1" as="geometry">
            <mxPoint y="-9" as="offset" />
          </mxGeometry>
        </mxCell>
        <mxCell id="xBiqOyVqdurxUvnj9MYU-7" value="" style="shape=waypoint;sketch=0;fillStyle=solid;size=6;pointerEvents=1;points=[];fillColor=none;resizable=0;rotatable=0;perimeter=centerPerimeter;snapToPoint=1;" vertex="1" parent="1">
          <mxGeometry x="259" y="340" width="20" height="20" as="geometry" />
        </mxCell>
        <mxCell id="xBiqOyVqdurxUvnj9MYU-13" value="" style="rounded=0;orthogonalLoop=1;jettySize=auto;html=1;" edge="1" parent="1" source="xBiqOyVqdurxUvnj9MYU-8" target="xBiqOyVqdurxUvnj9MYU-9">
          <mxGeometry relative="1" as="geometry" />
        </mxCell>
        <mxCell id="xBiqOyVqdurxUvnj9MYU-29" value="A" style="edgeLabel;html=1;align=center;verticalAlign=middle;resizable=0;points=[];" vertex="1" connectable="0" parent="xBiqOyVqdurxUvnj9MYU-13">
          <mxGeometry x="0.1836" y="-4" relative="1" as="geometry">
            <mxPoint x="-1" as="offset" />
          </mxGeometry>
        </mxCell>
        <mxCell id="xBiqOyVqdurxUvnj9MYU-8" value="" style="shape=waypoint;sketch=0;fillStyle=solid;size=6;pointerEvents=1;points=[];fillColor=none;resizable=0;rotatable=0;perimeter=centerPerimeter;snapToPoint=1;" vertex="1" parent="1">
          <mxGeometry x="299" y="340" width="20" height="20" as="geometry" />
        </mxCell>
        <mxCell id="xBiqOyVqdurxUvnj9MYU-9" value="" style="shape=actor;whiteSpace=wrap;html=1;" vertex="1" parent="1">
          <mxGeometry x="239" y="170" width="40" height="60" as="geometry" />
        </mxCell>
        <mxCell id="xBiqOyVqdurxUvnj9MYU-16" value="" style="shape=waypoint;sketch=0;fillStyle=solid;size=6;pointerEvents=1;points=[];fillColor=none;resizable=0;rotatable=0;perimeter=centerPerimeter;snapToPoint=1;" vertex="1" parent="1">
          <mxGeometry x="455" y="337.5" width="20" height="20" as="geometry" />
        </mxCell>
        <mxCell id="xBiqOyVqdurxUvnj9MYU-17" value="" style="shape=waypoint;sketch=0;fillStyle=solid;size=6;pointerEvents=1;points=[];fillColor=none;resizable=0;rotatable=0;perimeter=centerPerimeter;snapToPoint=1;" vertex="1" parent="1">
          <mxGeometry x="485" y="337.5" width="20" height="20" as="geometry" />
        </mxCell>
        <mxCell id="xBiqOyVqdurxUvnj9MYU-18" value="" style="shape=waypoint;sketch=0;fillStyle=solid;size=6;pointerEvents=1;points=[];fillColor=none;resizable=0;rotatable=0;perimeter=centerPerimeter;snapToPoint=1;" vertex="1" parent="1">
          <mxGeometry x="515" y="337.5" width="20" height="20" as="geometry" />
        </mxCell>
        <mxCell id="xBiqOyVqdurxUvnj9MYU-19" value="" style="shape=waypoint;sketch=0;fillStyle=solid;size=6;pointerEvents=1;points=[];fillColor=none;resizable=0;rotatable=0;perimeter=centerPerimeter;snapToPoint=1;" vertex="1" parent="1">
          <mxGeometry x="555" y="337.5" width="20" height="20" as="geometry" />
        </mxCell>
        <mxCell id="xBiqOyVqdurxUvnj9MYU-24" value="" style="shape=partialRectangle;whiteSpace=wrap;html=1;bottom=1;right=1;left=1;top=0;fillColor=none;routingCenterX=-0.5;" vertex="1" parent="1">
          <mxGeometry x="445" y="337.5" width="150" height="22.5" as="geometry" />
        </mxCell>
        <mxCell id="xBiqOyVqdurxUvnj9MYU-28" value="" style="edgeStyle=orthogonalEdgeStyle;rounded=0;orthogonalLoop=1;jettySize=auto;html=1;" edge="1" parent="1" source="xBiqOyVqdurxUvnj9MYU-25" target="xBiqOyVqdurxUvnj9MYU-26">
          <mxGeometry relative="1" as="geometry" />
        </mxCell>
        <mxCell id="xBiqOyVqdurxUvnj9MYU-33" value="健康/不健康" style="edgeLabel;html=1;align=center;verticalAlign=middle;resizable=0;points=[];" vertex="1" connectable="0" parent="xBiqOyVqdurxUvnj9MYU-28">
          <mxGeometry x="0.0225" y="-3" relative="1" as="geometry">
            <mxPoint as="offset" />
          </mxGeometry>
        </mxCell>
        <mxCell id="xBiqOyVqdurxUvnj9MYU-25" value="模型" style="shape=ext;double=1;rounded=1;whiteSpace=wrap;html=1;" vertex="1" parent="1">
          <mxGeometry x="465" y="285" width="110" height="45" as="geometry" />
        </mxCell>
        <mxCell id="xBiqOyVqdurxUvnj9MYU-26" value="" style="shape=actor;whiteSpace=wrap;html=1;" vertex="1" parent="1">
          <mxGeometry x="500" y="170" width="40" height="60" as="geometry" />
        </mxCell>
        <mxCell id="xBiqOyVqdurxUvnj9MYU-36" value="&lt;b&gt;&lt;font style=&quot;font-size: 15px;&quot;&gt;？？&lt;/font&gt;&lt;/b&gt;" style="text;html=1;align=center;verticalAlign=middle;whiteSpace=wrap;rounded=0;" vertex="1" parent="1">
          <mxGeometry x="265" y="160" width="60" height="30" as="geometry" />
        </mxCell>
        <mxCell id="xBiqOyVqdurxUvnj9MYU-37" value="&lt;font style=&quot;font-size: 15px;&quot;&gt;&lt;b&gt;哦！&lt;br&gt;&lt;/b&gt;&lt;/font&gt;" style="text;html=1;align=center;verticalAlign=middle;whiteSpace=wrap;rounded=0;" vertex="1" parent="1">
          <mxGeometry x="530" y="160" width="60" height="30" as="geometry" />
        </mxCell>
        <mxCell id="xBiqOyVqdurxUvnj9MYU-38" value="" style="shape=ext;double=1;whiteSpace=wrap;html=1;aspect=fixed;fillColor=#f8cecc;strokeColor=#b85450;" vertex="1" parent="1">
          <mxGeometry x="122" y="381" width="270" height="270" as="geometry" />
        </mxCell>
        <mxCell id="xBiqOyVqdurxUvnj9MYU-39" value="" style="shape=ext;double=1;whiteSpace=wrap;html=1;aspect=fixed;fillColor=#d5e8d4;strokeColor=#82b366;" vertex="1" parent="1">
          <mxGeometry x="392" y="381" width="270" height="270" as="geometry" />
        </mxCell>
        <mxCell id="xBiqOyVqdurxUvnj9MYU-48" value="" style="endArrow=none;dashed=1;html=1;rounded=0;entryX=0.75;entryY=1.092;entryDx=0;entryDy=0;entryPerimeter=0;" edge="1" parent="1" target="xBiqOyVqdurxUvnj9MYU-49">
          <mxGeometry width="50" height="50" relative="1" as="geometry">
            <mxPoint x="140" y="500" as="sourcePoint" />
            <mxPoint x="190" y="450" as="targetPoint" />
          </mxGeometry>
        </mxCell>
        <mxCell id="xBiqOyVqdurxUvnj9MYU-49" value="固定阈值" style="text;html=1;align=center;verticalAlign=middle;resizable=0;points=[];autosize=1;strokeColor=none;fillColor=none;" vertex="1" parent="1">
          <mxGeometry x="315" y="470" width="70" height="30" as="geometry" />
        </mxCell>
        <mxCell id="xBiqOyVqdurxUvnj9MYU-50" value="无阈值" style="text;html=1;align=center;verticalAlign=middle;resizable=0;points=[];autosize=1;strokeColor=none;fillColor=none;" vertex="1" parent="1">
          <mxGeometry x="400" y="470" width="60" height="30" as="geometry" />
        </mxCell>
        <mxCell id="xBiqOyVqdurxUvnj9MYU-52" value="" style="shape=waypoint;sketch=0;fillStyle=solid;size=6;pointerEvents=1;points=[];fillColor=none;resizable=0;rotatable=0;perimeter=centerPerimeter;snapToPoint=1;" vertex="1" parent="1">
          <mxGeometry x="515" y="534" width="20" height="20" as="geometry" />
        </mxCell>
        <mxCell id="xBiqOyVqdurxUvnj9MYU-53" value="" style="shape=waypoint;sketch=0;fillStyle=solid;size=6;pointerEvents=1;points=[];fillColor=none;resizable=0;rotatable=0;perimeter=centerPerimeter;snapToPoint=1;" vertex="1" parent="1">
          <mxGeometry x="590" y="460" width="20" height="20" as="geometry" />
        </mxCell>
        <mxCell id="xBiqOyVqdurxUvnj9MYU-54" value="" style="shape=waypoint;sketch=0;fillStyle=solid;size=6;pointerEvents=1;points=[];fillColor=none;resizable=0;rotatable=0;perimeter=centerPerimeter;snapToPoint=1;" vertex="1" parent="1">
          <mxGeometry x="505" y="541" width="20" height="20" as="geometry" />
        </mxCell>
        <mxCell id="xBiqOyVqdurxUvnj9MYU-55" value="" style="shape=waypoint;sketch=0;fillStyle=solid;size=6;pointerEvents=1;points=[];fillColor=none;resizable=0;rotatable=0;perimeter=centerPerimeter;snapToPoint=1;" vertex="1" parent="1">
          <mxGeometry x="495" y="544" width="20" height="20" as="geometry" />
        </mxCell>
        <mxCell id="xBiqOyVqdurxUvnj9MYU-57" value="" style="shape=waypoint;sketch=0;fillStyle=solid;size=6;pointerEvents=1;points=[];fillColor=none;resizable=0;rotatable=0;perimeter=centerPerimeter;snapToPoint=1;" vertex="1" parent="1">
          <mxGeometry x="517" y="550" width="20" height="20" as="geometry" />
        </mxCell>
        <mxCell id="xBiqOyVqdurxUvnj9MYU-58" value="" style="shape=waypoint;sketch=0;fillStyle=solid;size=6;pointerEvents=1;points=[];fillColor=none;resizable=0;rotatable=0;perimeter=centerPerimeter;snapToPoint=1;" vertex="1" parent="1">
          <mxGeometry x="505" y="550" width="20" height="20" as="geometry" />
        </mxCell>
        <mxCell id="xBiqOyVqdurxUvnj9MYU-59" value="" style="shape=waypoint;sketch=0;fillStyle=solid;size=6;pointerEvents=1;points=[];fillColor=none;resizable=0;rotatable=0;perimeter=centerPerimeter;snapToPoint=1;" vertex="1" parent="1">
          <mxGeometry x="515" y="560" width="20" height="20" as="geometry" />
        </mxCell>
        <mxCell id="xBiqOyVqdurxUvnj9MYU-60" value="" style="shape=waypoint;sketch=0;fillStyle=solid;size=6;pointerEvents=1;points=[];fillColor=none;resizable=0;rotatable=0;perimeter=centerPerimeter;snapToPoint=1;" vertex="1" parent="1">
          <mxGeometry x="525" y="544" width="20" height="20" as="geometry" />
        </mxCell>
        <mxCell id="xBiqOyVqdurxUvnj9MYU-68" value="" style="endArrow=none;html=1;rounded=0;edgeStyle=orthogonalEdgeStyle;curved=1;" edge="1" parent="1">
          <mxGeometry width="50" height="50" relative="1" as="geometry">
            <mxPoint x="149" y="570.1799999999998" as="sourcePoint" />
            <mxPoint x="364.99" y="550.1199999999999" as="targetPoint" />
            <Array as="points">
              <mxPoint x="168.99" y="570.06" />
              <mxPoint x="168.99" y="480.06" />
              <mxPoint x="194.99" y="480.06" />
              <mxPoint x="194.99" y="580.06" />
              <mxPoint x="257.99" y="580.06" />
              <mxPoint x="257.99" y="450.06" />
              <mxPoint x="287.99" y="450.06" />
              <mxPoint x="287.99" y="560.06" />
              <mxPoint x="364.99" y="560.06" />
            </Array>
          </mxGeometry>
        </mxCell>
        <mxCell id="xBiqOyVqdurxUvnj9MYU-69" value="" style="endArrow=none;dashed=1;html=1;dashPattern=1 3;strokeWidth=2;rounded=0;edgeStyle=orthogonalEdgeStyle;curved=1;" edge="1" parent="1">
          <mxGeometry width="50" height="50" relative="1" as="geometry">
            <mxPoint x="560" y="600" as="sourcePoint" />
            <mxPoint x="560" y="600" as="targetPoint" />
            <Array as="points">
              <mxPoint x="535" y="600" />
              <mxPoint x="480" y="600" />
              <mxPoint x="480" y="520" />
              <mxPoint x="560" y="520" />
            </Array>
          </mxGeometry>
        </mxCell>
        <mxCell id="xBiqOyVqdurxUvnj9MYU-70" value="异常检测" style="text;html=1;align=center;verticalAlign=middle;resizable=0;points=[];autosize=1;strokeColor=none;fillColor=none;" vertex="1" parent="1">
          <mxGeometry x="555" y="511" width="70" height="30" as="geometry" />
        </mxCell>
        <mxCell id="xBiqOyVqdurxUvnj9MYU-71" value="" style="curved=1;endArrow=classic;html=1;rounded=0;entryX=1;entryY=0.5;entryDx=0;entryDy=0;" edge="1" parent="1" source="xBiqOyVqdurxUvnj9MYU-26" target="xBiqOyVqdurxUvnj9MYU-25">
          <mxGeometry width="50" height="50" relative="1" as="geometry">
            <mxPoint x="565" y="260" as="sourcePoint" />
            <mxPoint x="615" y="210" as="targetPoint" />
            <Array as="points">
              <mxPoint x="570" y="220" />
              <mxPoint x="610" y="240" />
            </Array>
          </mxGeometry>
        </mxCell>
        <mxCell id="xBiqOyVqdurxUvnj9MYU-72" value="训练" style="edgeLabel;html=1;align=center;verticalAlign=middle;resizable=0;points=[];" vertex="1" connectable="0" parent="xBiqOyVqdurxUvnj9MYU-71">
          <mxGeometry x="-0.275" y="-2" relative="1" as="geometry">
            <mxPoint as="offset" />
          </mxGeometry>
        </mxCell>
        <mxCell id="xBiqOyVqdurxUvnj9MYU-73" value="" style="curved=1;endArrow=classic;html=1;rounded=0;exitX=0;exitY=0.5;exitDx=0;exitDy=0;entryX=0;entryY=0.5;entryDx=0;entryDy=0;" edge="1" parent="1" source="xBiqOyVqdurxUvnj9MYU-24" target="xBiqOyVqdurxUvnj9MYU-25">
          <mxGeometry width="50" height="50" relative="1" as="geometry">
            <mxPoint x="400" y="330" as="sourcePoint" />
            <mxPoint x="450" y="280" as="targetPoint" />
            <Array as="points">
              <mxPoint x="410" y="330" />
              <mxPoint x="410" y="310" />
            </Array>
          </mxGeometry>
        </mxCell>
        <mxCell id="xBiqOyVqdurxUvnj9MYU-74" value="训练" style="edgeLabel;html=1;align=center;verticalAlign=middle;resizable=0;points=[];" vertex="1" connectable="0" parent="xBiqOyVqdurxUvnj9MYU-73">
          <mxGeometry x="-0.2229" y="-3" relative="1" as="geometry">
            <mxPoint as="offset" />
          </mxGeometry>
        </mxCell>
        <mxCell id="xBiqOyVqdurxUvnj9MYU-77" value="进化！" style="text;html=1;align=center;verticalAlign=middle;whiteSpace=wrap;rounded=0;" vertex="1" parent="1">
          <mxGeometry x="580" y="280" width="60" height="30" as="geometry" />
        </mxCell>
        <mxCell id="xBiqOyVqdurxUvnj9MYU-78" value="固定" style="text;html=1;align=center;verticalAlign=middle;whiteSpace=wrap;rounded=0;" vertex="1" parent="1">
          <mxGeometry x="310" y="307.5" width="60" height="30" as="geometry" />
        </mxCell>
        <mxCell id="xBiqOyVqdurxUvnj9MYU-81" value="告警风暴" style="text;html=1;align=center;verticalAlign=middle;whiteSpace=wrap;rounded=0;" vertex="1" parent="1">
          <mxGeometry x="299" y="277.5" width="60" height="30" as="geometry" />
        </mxCell>
        <mxCell id="xBiqOyVqdurxUvnj9MYU-82" value="告警收敛" style="text;html=1;align=center;verticalAlign=middle;whiteSpace=wrap;rounded=0;" vertex="1" parent="1">
          <mxGeometry x="395" y="280" width="60" height="30" as="geometry" />
        </mxCell>
      </root>
    </mxGraphModel>
  </diagram>
  <diagram id="ahZI3o_3Xq-BMA294IlS" name="第 7 页">
    <mxGraphModel dx="1368" dy="790" grid="1" gridSize="10" guides="1" tooltips="1" connect="1" arrows="1" fold="1" page="1" pageScale="1" pageWidth="827" pageHeight="1169" math="0" shadow="0">
      <root>
        <mxCell id="0" />
        <mxCell id="1" parent="0" />
        <mxCell id="JirOJSiUaIOXTttM-B_k-11" value="&lt;font style=&quot;font-size: 20px;&quot;&gt;在线异常检测&lt;/font&gt;" style="swimlane;whiteSpace=wrap;html=1;labelBackgroundColor=none;swimlaneFillColor=#FFF2CC;fillStyle=hatch;fillColor=#FFE6CC;strokeColor=#d79b00;" vertex="1" parent="1">
          <mxGeometry x="300" y="175" width="600" height="410" as="geometry" />
        </mxCell>
        <mxCell id="JirOJSiUaIOXTttM-B_k-12" value="&lt;font style=&quot;font-size: 20px;&quot;&gt;基于霍夫丁树机器学习算法实现异常漂移检测&lt;/font&gt;" style="text;html=1;align=center;verticalAlign=middle;whiteSpace=wrap;rounded=0;labelBackgroundColor=none;fontColor=#143642;" vertex="1" parent="JirOJSiUaIOXTttM-B_k-11">
          <mxGeometry x="120" y="340" width="410" height="30" as="geometry" />
        </mxCell>
        <mxCell id="JirOJSiUaIOXTttM-B_k-1" style="edgeStyle=orthogonalEdgeStyle;rounded=0;orthogonalLoop=1;jettySize=auto;html=1;curved=1;labelBackgroundColor=none;strokeColor=#A8201A;fontColor=default;" edge="1" parent="JirOJSiUaIOXTttM-B_k-11" source="JirOJSiUaIOXTttM-B_k-2" target="JirOJSiUaIOXTttM-B_k-4">
          <mxGeometry relative="1" as="geometry" />
        </mxCell>
        <mxCell id="JirOJSiUaIOXTttM-B_k-2" value="&lt;font style=&quot;font-size: 20px;&quot;&gt;输入&lt;/font&gt;" style="rounded=1;whiteSpace=wrap;html=1;labelBackgroundColor=none;fillColor=#FAE5C7;strokeColor=#0F8B8D;fontColor=#143642;" vertex="1" parent="JirOJSiUaIOXTttM-B_k-11">
          <mxGeometry x="300" y="105" width="120" height="60" as="geometry" />
        </mxCell>
        <mxCell id="JirOJSiUaIOXTttM-B_k-3" style="edgeStyle=orthogonalEdgeStyle;rounded=0;orthogonalLoop=1;jettySize=auto;html=1;entryX=0.5;entryY=1;entryDx=0;entryDy=0;curved=1;labelBackgroundColor=none;strokeColor=#A8201A;fontColor=default;" edge="1" parent="JirOJSiUaIOXTttM-B_k-11" source="JirOJSiUaIOXTttM-B_k-4" target="JirOJSiUaIOXTttM-B_k-7">
          <mxGeometry relative="1" as="geometry">
            <Array as="points">
              <mxPoint x="210" y="295" />
            </Array>
          </mxGeometry>
        </mxCell>
        <mxCell id="JirOJSiUaIOXTttM-B_k-4" value="&lt;font style=&quot;font-size: 20px;&quot;&gt;训练&lt;/font&gt;" style="rounded=1;whiteSpace=wrap;html=1;labelBackgroundColor=none;fillColor=#FAE5C7;strokeColor=#0F8B8D;fontColor=#143642;" vertex="1" parent="JirOJSiUaIOXTttM-B_k-11">
          <mxGeometry x="440" y="195" width="120" height="60" as="geometry" />
        </mxCell>
        <mxCell id="JirOJSiUaIOXTttM-B_k-5" style="edgeStyle=orthogonalEdgeStyle;rounded=0;orthogonalLoop=1;jettySize=auto;html=1;entryX=0;entryY=0.5;entryDx=0;entryDy=0;curved=1;labelBackgroundColor=none;strokeColor=#A8201A;fontColor=default;" edge="1" parent="JirOJSiUaIOXTttM-B_k-11" source="JirOJSiUaIOXTttM-B_k-7" target="JirOJSiUaIOXTttM-B_k-2">
          <mxGeometry relative="1" as="geometry">
            <Array as="points">
              <mxPoint x="190" y="135" />
            </Array>
          </mxGeometry>
        </mxCell>
        <mxCell id="JirOJSiUaIOXTttM-B_k-6" style="rounded=0;orthogonalLoop=1;jettySize=auto;html=1;dashed=1;labelBackgroundColor=none;strokeColor=#A8201A;fontColor=default;" edge="1" parent="JirOJSiUaIOXTttM-B_k-11" source="JirOJSiUaIOXTttM-B_k-7" target="JirOJSiUaIOXTttM-B_k-10">
          <mxGeometry relative="1" as="geometry" />
        </mxCell>
        <mxCell id="JirOJSiUaIOXTttM-B_k-7" value="&lt;font style=&quot;font-size: 20px;&quot;&gt;模型&lt;/font&gt;" style="rounded=1;whiteSpace=wrap;html=1;labelBackgroundColor=none;fillColor=#FAE5C7;strokeColor=#0F8B8D;fontColor=#143642;" vertex="1" parent="JirOJSiUaIOXTttM-B_k-11">
          <mxGeometry x="150" y="185" width="120" height="60" as="geometry" />
        </mxCell>
        <mxCell id="JirOJSiUaIOXTttM-B_k-8" style="rounded=0;orthogonalLoop=1;jettySize=auto;html=1;dashed=1;labelBackgroundColor=none;strokeColor=#A8201A;fontColor=default;" edge="1" parent="JirOJSiUaIOXTttM-B_k-11" source="JirOJSiUaIOXTttM-B_k-9">
          <mxGeometry relative="1" as="geometry">
            <mxPoint x="150" y="175" as="targetPoint" />
          </mxGeometry>
        </mxCell>
        <mxCell id="JirOJSiUaIOXTttM-B_k-9" value="&lt;font style=&quot;font-size: 20px;&quot;&gt;测试&lt;/font&gt;" style="text;html=1;align=center;verticalAlign=middle;whiteSpace=wrap;rounded=0;labelBackgroundColor=none;fontColor=#143642;" vertex="1" parent="JirOJSiUaIOXTttM-B_k-11">
          <mxGeometry x="50" y="105" width="60" height="30" as="geometry" />
        </mxCell>
        <mxCell id="JirOJSiUaIOXTttM-B_k-10" value="&lt;font style=&quot;font-size: 20px;&quot;&gt;决策&lt;br&gt;&lt;/font&gt;" style="text;html=1;align=center;verticalAlign=middle;whiteSpace=wrap;rounded=0;labelBackgroundColor=none;fontColor=#143642;" vertex="1" parent="JirOJSiUaIOXTttM-B_k-11">
          <mxGeometry x="50" y="275" width="60" height="30" as="geometry" />
        </mxCell>
      </root>
    </mxGraphModel>
  </diagram>
  <diagram id="Dgo0ab5yDCTyZR36s6Ua" name="第 8 页">
    <mxGraphModel dx="1368" dy="790" grid="1" gridSize="10" guides="1" tooltips="1" connect="1" arrows="1" fold="1" page="1" pageScale="1" pageWidth="827" pageHeight="1169" math="0" shadow="0">
      <root>
        <mxCell id="0" />
        <mxCell id="1" parent="0" />
        <mxCell id="f4X-k3VMw3EjTf-Dw7Xa-1" value="HOT异常检测模型" style="rounded=1;whiteSpace=wrap;html=1;labelBackgroundColor=none;fillColor=#FAE5C7;strokeColor=#0F8B8D;fontColor=#143642;" vertex="1" parent="1">
          <mxGeometry x="120" y="180" width="120" height="60" as="geometry" />
        </mxCell>
        <mxCell id="f4X-k3VMw3EjTf-Dw7Xa-2" value="监控状况预测模型" style="rounded=1;whiteSpace=wrap;html=1;labelBackgroundColor=none;fillColor=#FAE5C7;strokeColor=#0F8B8D;fontColor=#143642;" vertex="1" parent="1">
          <mxGeometry x="290" y="180" width="120" height="60" as="geometry" />
        </mxCell>
        <mxCell id="f4X-k3VMw3EjTf-Dw7Xa-3" value="" style="shape=flexArrow;endArrow=classic;html=1;rounded=0;labelBackgroundColor=none;strokeColor=#A8201A;fontColor=default;" edge="1" parent="1">
          <mxGeometry width="50" height="50" relative="1" as="geometry">
            <mxPoint x="30" y="360" as="sourcePoint" />
            <mxPoint x="610" y="360" as="targetPoint" />
          </mxGeometry>
        </mxCell>
        <mxCell id="f4X-k3VMw3EjTf-Dw7Xa-5" value="数据流" style="text;html=1;align=center;verticalAlign=middle;whiteSpace=wrap;rounded=0;labelBackgroundColor=none;fontColor=#143642;" vertex="1" parent="1">
          <mxGeometry x="20" y="300" width="90" height="30" as="geometry" />
        </mxCell>
        <mxCell id="f4X-k3VMw3EjTf-Dw7Xa-6" value="" style="shape=flexArrow;endArrow=classic;html=1;rounded=0;entryX=0.5;entryY=1;entryDx=0;entryDy=0;labelBackgroundColor=none;strokeColor=#A8201A;fontColor=default;" edge="1" parent="1" target="f4X-k3VMw3EjTf-Dw7Xa-1">
          <mxGeometry width="50" height="50" relative="1" as="geometry">
            <mxPoint x="240" y="320" as="sourcePoint" />
            <mxPoint x="220" y="270" as="targetPoint" />
          </mxGeometry>
        </mxCell>
        <mxCell id="f4X-k3VMw3EjTf-Dw7Xa-7" value="输入" style="edgeLabel;html=1;align=center;verticalAlign=middle;resizable=0;points=[];labelBackgroundColor=none;fontColor=#143642;" vertex="1" connectable="0" parent="f4X-k3VMw3EjTf-Dw7Xa-6">
          <mxGeometry x="-0.04" y="3" relative="1" as="geometry">
            <mxPoint as="offset" />
          </mxGeometry>
        </mxCell>
        <mxCell id="f4X-k3VMw3EjTf-Dw7Xa-8" value="" style="shape=flexArrow;endArrow=classic;html=1;rounded=0;entryX=0.558;entryY=1.033;entryDx=0;entryDy=0;entryPerimeter=0;labelBackgroundColor=none;strokeColor=#A8201A;fontColor=default;" edge="1" parent="1" target="f4X-k3VMw3EjTf-Dw7Xa-2">
          <mxGeometry width="50" height="50" relative="1" as="geometry">
            <mxPoint x="300" y="320" as="sourcePoint" />
            <mxPoint x="440" y="230" as="targetPoint" />
          </mxGeometry>
        </mxCell>
        <mxCell id="f4X-k3VMw3EjTf-Dw7Xa-9" value="输入" style="edgeLabel;html=1;align=center;verticalAlign=middle;resizable=0;points=[];labelBackgroundColor=none;fontColor=#143642;" vertex="1" connectable="0" parent="f4X-k3VMw3EjTf-Dw7Xa-8">
          <mxGeometry x="-0.3318" y="4" relative="1" as="geometry">
            <mxPoint as="offset" />
          </mxGeometry>
        </mxCell>
        <mxCell id="f4X-k3VMw3EjTf-Dw7Xa-10" value="" style="shape=message;html=1;html=1;outlineConnect=0;labelPosition=center;verticalLabelPosition=bottom;align=center;verticalAlign=top;labelBackgroundColor=none;fillColor=#FAE5C7;strokeColor=#0F8B8D;fontColor=#143642;" vertex="1" parent="1">
          <mxGeometry x="90" y="330" width="60" height="40" as="geometry" />
        </mxCell>
        <mxCell id="f4X-k3VMw3EjTf-Dw7Xa-11" value="" style="shape=message;html=1;html=1;outlineConnect=0;labelPosition=center;verticalLabelPosition=bottom;align=center;verticalAlign=top;labelBackgroundColor=none;fillColor=#FAE5C7;strokeColor=#0F8B8D;fontColor=#143642;" vertex="1" parent="1">
          <mxGeometry x="240" y="320" width="60" height="40" as="geometry" />
        </mxCell>
        <mxCell id="f4X-k3VMw3EjTf-Dw7Xa-13" value="" style="shape=message;html=1;html=1;outlineConnect=0;labelPosition=center;verticalLabelPosition=bottom;align=center;verticalAlign=top;labelBackgroundColor=none;fillColor=#FAE5C7;strokeColor=#0F8B8D;fontColor=#143642;" vertex="1" parent="1">
          <mxGeometry x="390" y="330" width="60" height="40" as="geometry" />
        </mxCell>
        <mxCell id="f4X-k3VMw3EjTf-Dw7Xa-20" value="" style="edgeStyle=orthogonalEdgeStyle;rounded=0;orthogonalLoop=1;jettySize=auto;html=1;labelBackgroundColor=none;strokeColor=#A8201A;fontColor=default;" edge="1" parent="1" source="f4X-k3VMw3EjTf-Dw7Xa-14" target="f4X-k3VMw3EjTf-Dw7Xa-19">
          <mxGeometry relative="1" as="geometry" />
        </mxCell>
        <mxCell id="f4X-k3VMw3EjTf-Dw7Xa-14" value="异常抖动且不健康" style="rounded=1;whiteSpace=wrap;html=1;labelBackgroundColor=none;fillColor=#FAE5C7;strokeColor=#0F8B8D;fontColor=#143642;" vertex="1" parent="1">
          <mxGeometry x="200" y="40" width="120" height="60" as="geometry" />
        </mxCell>
        <mxCell id="f4X-k3VMw3EjTf-Dw7Xa-15" value="在线训练" style="html=1;shadow=0;dashed=0;align=center;verticalAlign=middle;shape=mxgraph.arrows2.uTurnArrow;dy=11;arrowHead=43;dx2=27.25;labelBackgroundColor=none;fillColor=#FAE5C7;strokeColor=#0F8B8D;fontColor=#143642;" vertex="1" parent="1">
          <mxGeometry x="45" y="170" width="75" height="90" as="geometry" />
        </mxCell>
        <mxCell id="f4X-k3VMw3EjTf-Dw7Xa-16" style="edgeStyle=orthogonalEdgeStyle;rounded=0;orthogonalLoop=1;jettySize=auto;html=1;entryX=0.558;entryY=1.033;entryDx=0;entryDy=0;entryPerimeter=0;labelBackgroundColor=none;strokeColor=#A8201A;fontColor=default;" edge="1" parent="1" source="f4X-k3VMw3EjTf-Dw7Xa-1" target="f4X-k3VMw3EjTf-Dw7Xa-14">
          <mxGeometry relative="1" as="geometry" />
        </mxCell>
        <mxCell id="f4X-k3VMw3EjTf-Dw7Xa-17" style="edgeStyle=orthogonalEdgeStyle;rounded=0;orthogonalLoop=1;jettySize=auto;html=1;entryX=0.558;entryY=1.05;entryDx=0;entryDy=0;entryPerimeter=0;labelBackgroundColor=none;strokeColor=#A8201A;fontColor=default;" edge="1" parent="1" source="f4X-k3VMw3EjTf-Dw7Xa-2" target="f4X-k3VMw3EjTf-Dw7Xa-14">
          <mxGeometry relative="1" as="geometry" />
        </mxCell>
        <mxCell id="f4X-k3VMw3EjTf-Dw7Xa-19" value="告警通知" style="rounded=1;whiteSpace=wrap;html=1;labelBackgroundColor=none;fillColor=#FAE5C7;strokeColor=#0F8B8D;fontColor=#143642;" vertex="1" parent="1">
          <mxGeometry x="400" y="40" width="120" height="60" as="geometry" />
        </mxCell>
        <mxCell id="f4X-k3VMw3EjTf-Dw7Xa-22" value="离线训练" style="html=1;shadow=0;dashed=0;align=center;verticalAlign=middle;shape=mxgraph.arrows2.arrow;dy=0.6;dx=40;flipH=1;notch=0;labelBackgroundColor=none;fillColor=#FAE5C7;strokeColor=#0F8B8D;fontColor=#143642;" vertex="1" parent="1">
          <mxGeometry x="420" y="210" width="80" height="50" as="geometry" />
        </mxCell>
        <mxCell id="f4X-k3VMw3EjTf-Dw7Xa-23" value="数据清洗" style="ellipse;shape=cloud;whiteSpace=wrap;html=1;labelBackgroundColor=none;fillColor=#FAE5C7;strokeColor=#0F8B8D;fontColor=#143642;" vertex="1" parent="1">
          <mxGeometry x="480" y="160" width="120" height="80" as="geometry" />
        </mxCell>
      </root>
    </mxGraphModel>
  </diagram>
</mxfile>
